<?xml version="1.0" encoding="UTF-8" standalone="no"?>
<!-- Created with Inkscape (http://www.inkscape.org/) -->

<svg
   width="264.48105mm"
   height="214.77429mm"
   viewBox="-12 -12 291.045 236.3458"
   version="1.1"
   id="svg1"
   xml:space="preserve"
   inkscape:export-filename="section6.svg"
   inkscape:export-xdpi="96"
   inkscape:export-ydpi="96"
   inkscape:version="1.3.2 (091e20e, 2023-11-25, custom)"
   sodipodi:docname="icons_manual.svg"
   xmlns:inkscape="http://www.inkscape.org/namespaces/inkscape"
   xmlns:sodipodi="http://sodipodi.sourceforge.net/DTD/sodipodi-0.dtd"
   xmlns:xlink="http://www.w3.org/1999/xlink"
   xmlns="http://www.w3.org/2000/svg"
   xmlns:svg="http://www.w3.org/2000/svg"><sodipodi:namedview
     id="namedview1"
     pagecolor="#ffffff"
     bordercolor="#000000"
     borderopacity="0.25"
     inkscape:showpageshadow="2"
     inkscape:pageopacity="0.0"
     inkscape:pagecheckerboard="0"
     inkscape:deskcolor="#d1d1d1"
     inkscape:document-units="mm"
     showguides="true"
     inkscape:zoom="0.36945288"
     inkscape:cx="174.58248"
     inkscape:cy="315.33115"
     inkscape:window-width="2560"
     inkscape:window-height="1369"
     inkscape:window-x="1912"
     inkscape:window-y="-8"
     inkscape:window-maximized="1"
     inkscape:current-layer="layer1"><sodipodi:guide
       position="-1867.3936,5.4533196"
       orientation="0,-1"
       id="guide95"
       inkscape:locked="false" /><sodipodi:guide
       position="-1772.8242,230.84362"
       orientation="0,-1"
       id="guide96"
       inkscape:locked="false" /><sodipodi:guide
       position="-2325.7873,30.508941"
       orientation="0,-1"
       id="guide151"
       inkscape:locked="false" /></sodipodi:namedview><defs
     id="defs1"><linearGradient
       id="swatch150"
       inkscape:swatch="solid"><stop
         style="stop-color:#0b619a;stop-opacity:1;"
         offset="0"
         id="stop150" /></linearGradient><linearGradient
       id="swatch149"
       inkscape:swatch="solid"><stop
         style="stop-color:#64747f;stop-opacity:1;"
         offset="0"
         id="stop149" /></linearGradient><linearGradient
       id="swatch148"
       inkscape:swatch="solid"><stop
         style="stop-color:#e07d00;stop-opacity:1;"
         offset="0"
         id="stop148" /></linearGradient><linearGradient
       id="swatch147"
       inkscape:swatch="solid"><stop
         style="stop-color:#ffffff;stop-opacity:1;"
         offset="0"
         id="stop147" /></linearGradient><linearGradient
       id="swatch145"
       inkscape:swatch="solid"><stop
         style="stop-color:#0b619a;stop-opacity:1;"
         offset="0"
         id="stop145" /></linearGradient><linearGradient
       id="swatch144"
       inkscape:swatch="solid"><stop
         style="stop-color:#ffffff;stop-opacity:1;"
         offset="0"
         id="stop144" /></linearGradient><linearGradient
       id="swatch143"
       inkscape:swatch="solid"><stop
         style="stop-color:#0b619a;stop-opacity:1;"
         offset="0"
         id="stop143" /></linearGradient><linearGradient
       id="swatch142"
       inkscape:swatch="solid"><stop
         style="stop-color:#92e3de;stop-opacity:1;"
         offset="0"
         id="stop142" /></linearGradient><linearGradient
       id="swatch141"
       inkscape:swatch="solid"><stop
         style="stop-color:#17587f;stop-opacity:1;"
         offset="0"
         id="stop141" /></linearGradient><linearGradient
       id="swatch140"
       inkscape:swatch="solid"><stop
         style="stop-color:#e07d00;stop-opacity:1;"
         offset="0"
         id="stop140" /></linearGradient><linearGradient
       id="swatch138"
       inkscape:swatch="solid"><stop
         style="stop-color:#e07d00;stop-opacity:1;"
         offset="0"
         id="stop138" /></linearGradient><linearGradient
       id="swatch133"
       inkscape:swatch="solid"><stop
         style="stop-color:#17587f;stop-opacity:1;"
         offset="0"
         id="stop133" /></linearGradient><linearGradient
       id="swatch132"
       inkscape:swatch="solid"><stop
         style="stop-color:#57a0ab;stop-opacity:1;"
         offset="0"
         id="stop132" /></linearGradient><linearGradient
       id="swatch131"
       inkscape:swatch="solid"><stop
         style="stop-color:#09688b;stop-opacity:1;"
         offset="0"
         id="stop131" /></linearGradient><linearGradient
       id="swatch130"
       inkscape:swatch="solid"><stop
         style="stop-color:#09688b;stop-opacity:1;"
         offset="0"
         id="stop130" /></linearGradient><linearGradient
       id="swatch129"
       inkscape:swatch="solid"><stop
         style="stop-color:#4be6ca;stop-opacity:1;"
         offset="0"
         id="stop129" /></linearGradient><linearGradient
       id="swatch128"
       inkscape:swatch="solid"><stop
         style="stop-color:#4be6ca;stop-opacity:1;"
         offset="0"
         id="stop128" /></linearGradient><linearGradient
       id="swatch119"
       inkscape:swatch="solid"><stop
         style="stop-color:#006e98;stop-opacity:1;"
         offset="0"
         id="stop119" /></linearGradient><linearGradient
       id="swatch118"
       inkscape:swatch="solid"><stop
         style="stop-color:#58cdc1;stop-opacity:1;"
         offset="0"
         id="stop118" /></linearGradient><linearGradient
       id="swatch116"
       inkscape:swatch="solid"><stop
         style="stop-color:#5d7b8f;stop-opacity:1;"
         offset="0"
         id="stop116" /></linearGradient><linearGradient
       id="swatch115"
       inkscape:swatch="solid"><stop
         style="stop-color:#58b8c5;stop-opacity:1;"
         offset="0"
         id="stop115" /></linearGradient><linearGradient
       id="swatch114"
       inkscape:swatch="solid"><stop
         style="stop-color:#0a5789;stop-opacity:1;"
         offset="0"
         id="stop114" /></linearGradient><linearGradient
       id="swatch100"
       inkscape:swatch="solid"><stop
         style="stop-color:#000000;stop-opacity:1;"
         offset="0"
         id="stop100" /></linearGradient><linearGradient
       id="swatch98"
       inkscape:swatch="solid"><stop
         style="stop-color:#076690;stop-opacity:1;"
         offset="0"
         id="stop98" /></linearGradient><linearGradient
       id="swatch97"
       inkscape:swatch="solid"><stop
         style="stop-color:#d9dee1;stop-opacity:1;"
         offset="0"
         id="stop97" /></linearGradient><linearGradient
       id="swatch94"
       inkscape:swatch="solid"><stop
         style="stop-color:#e07d00;stop-opacity:1;"
         offset="0"
         id="stop94" /></linearGradient><linearGradient
       id="swatch93"
       inkscape:swatch="solid"><stop
         style="stop-color:#006694;stop-opacity:1;"
         offset="0"
         id="stop93" /></linearGradient><linearGradient
       id="swatch89"
       inkscape:swatch="solid"><stop
         style="stop-color:#8a8a8a;stop-opacity:1;"
         offset="0"
         id="stop89" /></linearGradient><linearGradient
       id="swatch88"
       inkscape:swatch="solid"><stop
         style="stop-color:#474747;stop-opacity:1;"
         offset="0"
         id="stop88" /></linearGradient><linearGradient
       id="swatch87"
       inkscape:swatch="solid"
       inkscape:label="blue"><stop
         style="stop-color:#00568f;stop-opacity:1;"
         offset="0"
         id="stop87" /></linearGradient><linearGradient
       id="swatch82"
       inkscape:swatch="solid"><stop
         style="stop-color:#000000;stop-opacity:1;"
         offset="0"
         id="stop82" /></linearGradient><linearGradient
       id="swatch78"
       inkscape:swatch="solid"><stop
         style="stop-color:#989898;stop-opacity:1;"
         offset="0"
         id="stop78" /></linearGradient><linearGradient
       id="swatch77"
       inkscape:swatch="solid"
       inkscape:label="light gray"><stop
         style="stop-color:#989898;stop-opacity:1;"
         offset="0"
         id="stop77" /></linearGradient><linearGradient
       inkscape:collect="always"
       xlink:href="#swatch94"
       id="linearGradient132"
       x1="476.38828"
       y1="1239.9288"
       x2="566.58075"
       y2="1239.9288"
       gradientUnits="userSpaceOnUse"
       gradientTransform="matrix(1.0998714,0,0,1.0998714,-62.812174,-140.35338)" /><linearGradient
       inkscape:collect="always"
       xlink:href="#swatch77"
       id="linearGradient133"
       x1="587.41663"
       y1="1229.5533"
       x2="654.38159"
       y2="1229.5533"
       gradientUnits="userSpaceOnUse"
       gradientTransform="translate(-4.1730849,3.6200244)" /><linearGradient
       inkscape:collect="always"
       xlink:href="#swatch77"
       id="linearGradient134"
       gradientUnits="userSpaceOnUse"
       gradientTransform="translate(2276.9688,-17.6235)"
       x1="-158.19759"
       y1="813.30524"
       x2="85.602127"
       y2="813.30524" /><linearGradient
       inkscape:collect="always"
       xlink:href="#swatch87"
       id="linearGradient141"
       x1="413.50674"
       y1="1224.2263"
       x2="684.8576"
       y2="1224.2263"
       gradientUnits="userSpaceOnUse" /></defs><g
     inkscape:label="Layer 1"
     inkscape:groupmode="layer"
     id="layer1"
     transform="translate(-2107.1487,-582.13177)"><rect
       style="fill:#ffffff;fill-opacity:1;stroke:#ffffff;stroke-width:11.0044;stroke-linecap:square;stroke-linejoin:miter;stroke-miterlimit:27.4;stroke-dasharray:none;stroke-opacity:1"
       id="rect92-7"
       width="280.04071"
       height="225.34148"
       x="2100.6509"
       y="575.63397"
       rx="0"
       ry="0" /><g
       id="g70"
       transform="matrix(0.97678729,0,0,0.97678729,1703.6285,-511.17836)"><path
         style="fill:url(#linearGradient132);stroke-width:1.09987"
         d="m 516.87492,1278.2915 c 0.27947,-0.1176 0.38776,-8.6288 0.31345,-24.6383 l -0.11351,-24.4584 11.85553,-7.0166 c 6.52054,-3.8592 16.08266,-9.4973 21.24914,-12.5291 5.16649,-3.032 9.58575,-5.5866 9.8206,-5.6772 0.28221,-0.1088 0.39716,8.1243 0.33904,24.2848 l -0.0879,24.4495 -6.10331,3.6745 c -3.35681,2.0209 -13.07885,7.8333 -21.60453,12.9162 -8.52567,5.0829 -15.63493,9.2266 -15.79834,9.208 -0.16343,-0.019 -0.10505,-0.1146 0.12986,-0.2134 z m -12.83082,-0.5683 c -0.2231,-0.2136 -7.8031,-4.687 -16.84446,-9.9407 -9.04134,-5.2539 -18.6004,-10.78 -21.24236,-12.2804 l -4.80355,-2.7281 v -24.194 c 0,-13.3066 0.11699,-24.3109 0.25997,-24.4539 0.14297,-0.143 0.95958,0.1884 1.81467,0.7362 0.8551,0.548 7.79933,4.6438 15.43163,9.1018 7.63231,4.458 16.66299,9.7291 20.06817,11.7133 l 6.19124,3.6078 0.11024,24.4133 c 0.0606,13.4272 -0.045,24.4132 -0.23483,24.4132 -0.18979,0 -0.52762,-0.1748 -0.75072,-0.3885 z m -7.69494,-66.5785 c -7.96774,-4.6346 -17.80123,-10.3372 -21.85223,-12.6722 -4.051,-2.335 -7.36247,-4.3455 -7.35882,-4.4676 0.004,-0.1223 4.08664,-2.6177 9.07337,-5.5454 4.98671,-2.9277 14.44672,-8.4727 21.02225,-12.3224 6.57552,-3.8496 12.35199,-7.1849 12.83657,-7.4118 l 0.88106,-0.4126 19.1871,11.2051 c 10.55291,6.1628 20.41613,11.922 21.91827,12.7984 l 2.73118,1.5934 -1.29006,0.6671 c -0.70952,0.3668 -6.7421,3.8689 -13.40573,7.7822 -6.66361,3.9133 -15.86243,9.3283 -20.44182,12.0332 -4.57939,2.705 -8.43601,4.977 -8.57025,5.0487 -0.13427,0.071 -6.76317,-3.6615 -14.73089,-8.2961 z"
         id="path71" /><path
         style="fill:url(#linearGradient141)"
         d="m 526.05186,1317.0228 c -0.97591,-0.2643 -2.56278,-0.9425 -3.52638,-1.5072 -0.96359,-0.5647 -2.38492,-1.7273 -3.15849,-2.5836 -0.77358,-0.8562 -1.74279,-2.2198 -2.15379,-3.0301 -0.41101,-0.8103 -0.95997,-2.4341 -1.2199,-3.6084 -0.27529,-1.2437 -0.41604,-3.972 -0.33711,-6.5346 l 0.1355,-4.3993 0.67832,-0.4953 c 0.40519,-0.2959 2.43049,-0.5784 5.02969,-0.7016 2.39326,-0.1134 4.56521,-0.1242 4.82657,-0.024 0.26135,0.1003 0.66208,0.7185 0.89052,1.3738 0.22844,0.6553 0.41534,2.9898 0.41534,5.1877 v 3.9963 l 0.8628,0.6043 0.8628,0.6044 h 70.71913 70.71913 l 0.91648,-0.7422 0.91648,-0.7421 0.0999,-58.9783 0.0999,-77.2883 h -13.76523 c -8.71339,0 -14.52023,-0.1602 -15.82245,-0.4365 -1.13147,-0.2401 -2.90985,-0.866 -3.95195,-1.391 -1.04211,-0.5249 -2.75532,-1.815 -3.80714,-2.8669 -1.1064,-1.1064 -2.43483,-3.0152 -3.152,-4.5292 l -1.23961,-2.6168 -0.11342,-15.8196 -0.11343,-15.8196 h -50.83927 -50.83928 l -0.77642,0.7764 -0.77642,0.7764 v 12.4663 14.623 l -0.67937,0.8224 c -0.38788,0.4695 -1.09573,0.805 -1.6499,0.7819 -0.53379,-0.022 -2.64586,-0.067 -4.69349,-0.1 l -3.72297,-0.06 -0.65637,-0.5427 -0.65638,-0.5427 0.10902,-16.2672 0.10902,-14.1105 1.27595,-2.5912 c 0.76004,-1.5435 1.95456,-3.1886 2.95427,-4.0686 0.92308,-0.8125 2.46395,-1.8696 3.42416,-2.3492 0.96021,-0.4795 2.66812,-1.0468 3.79536,-1.2606 1.30483,-0.2474 21.18809,-0.3887 54.72277,-0.3887 h 52.67325 l 2.10857,0.6166 c 1.15971,0.3391 2.90989,1.1252 3.88928,1.7468 0.97939,0.6216 2.54084,1.9601 3.46989,2.9744 0.92905,1.0143 10.10421,10.3168 20.38924,20.6724 l 18.70006,18.8282 0.83156,2.2468 0.83155,2.2468 v 80.6628 62.3529 l -0.61504,2.0711 c -0.33827,1.1391 -1.01251,2.6994 -1.49831,3.4673 -0.48579,0.7679 -1.70701,2.1543 -2.71381,3.0809 -1.0068,0.9266 -2.82195,2.1494 -4.0337,2.7175 l -2.20316,1.0328 -72.98367,0.073 -72.98368,0.073 z m 128.07325,-172.5224 -11.38841,-11.6196 -0.10387,9.9697 -0.10387,9.9696 0.44853,1.083 c 0.24669,0.5957 0.81272,1.3381 1.25783,1.6499 l 0.8093,0.5669 h 10.23445 10.23445 z m -207.24088,166.0194 c 0,0.5412 -2.06115,-0.516 -3.39414,-0.9484 -1.33299,-0.4323 -3.69411,-1.6155 -5.24694,-2.6292 -1.55283,-1.0137 -3.74873,-2.8778 -4.87977,-4.1425 -1.13105,-1.2647 -2.74738,-3.697 -3.59186,-5.4051 -0.84447,-1.7082 -1.79128,-4.3286 -2.10399,-5.8232 l -0.56858,-2.7175 -0.007,-23.3192 -0.007,-23.3193 -0.58663,-1.9754 c -0.32263,-1.0864 -1.16264,-2.8112 -1.86667,-3.8328 -0.70402,-1.0216 -2.08709,-2.4136 -3.07348,-3.0934 -0.98639,-0.6797 -2.46109,-1.3522 -3.27712,-1.4942 -0.81603,-0.1421 -1.97234,-0.4505 -2.56958,-0.6855 -0.59724,-0.2349 -1.33969,-0.9179 -1.6499,-1.5178 -0.31021,-0.5998 -0.55984,-2.1038 -0.55475,-3.3421 0.005,-1.2383 0.1652,-2.9235 0.35579,-3.7448 0.19059,-0.8213 0.73162,-1.9032 1.20227,-2.4042 0.49711,-0.5292 1.6782,-1.0873 2.8182,-1.3318 1.07935,-0.2315 2.52627,-0.7693 3.21538,-1.1952 0.68911,-0.4259 1.90092,-1.4916 2.69292,-2.3683 0.792,-0.8766 1.81341,-2.4013 2.26973,-3.3883 l 0.82973,-1.7945 0.20589,-24.4573 0.20589,-24.4573 0.89602,-2.7175 c 0.4928,-1.4946 1.50438,-3.8161 2.24793,-5.159 0.74354,-1.3428 2.40084,-3.5628 3.68289,-4.9333 1.28205,-1.3705 3.40969,-3.1616 4.72809,-3.9802 1.31841,-0.8187 3.09588,-1.7852 3.94994,-2.1479 0.85407,-0.3627 2.59405,-0.9232 3.86662,-1.2454 1.52164,-0.3854 4.1876,-0.586 7.78708,-0.586 h 5.4733 l 0.75357,0.551 0.75356,0.5511 v 5.4468 5.4468 l -0.50345,0.5047 c -0.33606,0.3369 -2.14666,0.5723 -5.44538,0.7079 l -4.94191,0.2032 -2.2118,1.0821 c -1.21651,0.5952 -2.81825,1.7907 -3.55946,2.6566 -0.74122,0.866 -1.65633,2.3839 -2.0336,3.3732 l -0.68594,1.7987 -0.22892,23.0986 -0.22892,23.0986 -0.67117,2.2976 c -0.36915,1.2637 -1.22565,3.36 -1.90336,4.6585 -0.72848,1.3958 -2.36193,3.4748 -3.99573,5.0857 -1.51994,1.4986 -3.49308,3.0537 -4.38475,3.4558 -0.89168,0.4021 -1.62123,0.8456 -1.62123,0.9856 0,0.14 0.69581,0.5615 1.54625,0.9367 0.85044,0.3752 2.26191,1.2801 3.1366,2.0109 0.8747,0.7308 2.25103,2.1282 3.05852,3.1054 0.8075,0.9772 2.00962,2.8573 2.67139,4.1781 0.66177,1.3208 1.46948,3.537 1.79497,4.9249 l 0.59176,2.5233 0.006,22.5687 0.006,22.5688 0.64078,1.984 c 0.35243,1.0912 1.22631,2.6681 1.94197,3.5042 0.71566,0.8361 2.20854,1.9724 3.31756,2.525 l 2.01635,1.0048 h 4.98817 4.98817 l 0.95288,0.9529 0.95288,0.9528 v 4.818 4.8179 l -0.8046,1.0229 -0.8046,1.0229 -6.08614,-0.053 c -3.34739,-0.029 -7.05668,-0.7564 -7.05668,-0.2152 z"
         id="path70"
         sodipodi:nodetypes="cssssscssssscccccccccssssscccccccccscscccccssssscsssscccccssssccccccccssccccsssssscccssssssssssssscccssssssscccccsscssscccsssssssssscccsssccccccccccss" /><path
         d="m 590.94246,1278.5261 c -1.11929,-0.1287 -2.07938,-0.5138 -2.67458,-1.073 -0.51068,-0.4799 -1.12,-1.4526 -1.35405,-2.1617 l -0.42553,-1.2894 0.42674,-1.4244 c 0.25525,-0.852 0.91971,-1.8003 1.65352,-2.36 l 1.22677,-0.9357 h 19.52149 19.52149 l 1.08651,0.5619 c 0.59758,0.309 1.33934,1.0507 1.64836,1.6483 0.30902,0.5976 0.56123,1.7198 0.56046,2.4939 -7.5e-4,0.774 -0.32519,1.9384 -0.72095,2.5875 -0.39577,0.6491 -1.10351,1.395 -1.57278,1.6579 l -0.85319,0.4778 -18.1491,0.01 c -9.98201,0.01 -18.93483,-0.081 -19.89516,-0.1919 z m -2.33605,-22.6972 c -0.71551,-0.7155 -1.33423,-1.7851 -1.47898,-2.5567 l -0.24888,-1.3266 0.653,-1.3761 c 0.35916,-0.7568 1.16637,-1.6909 1.79382,-2.0757 l 1.14081,-0.6994 28.40042,0.095 28.4004,0.095 1.04558,0.7743 c 0.57506,0.4259 1.27977,1.4367 1.566,2.2461 0.3127,0.8843 0.41486,1.8923 0.25596,2.5254 -0.14545,0.5796 -0.82134,1.6107 -1.50196,2.2913 l -1.23749,1.2375 H 618.6158 589.83652 Z m 18.84329,-24.2786 c -0.68613,-0.4307 -1.34235,-1.2673 -1.59531,-2.0337 l -0.42974,-1.3021 0.53803,-1.7823 c 0.29591,-0.9802 2.98114,-9.6994 5.96718,-19.3758 l 5.42915,-17.5935 0.90619,-0.9176 0.90619,-0.9175 h 1.4181 c 0.77995,0 1.8568,0.2875 2.39299,0.6388 0.58938,0.3862 1.13104,1.2186 1.36977,2.1053 l 0.39489,1.4664 -5.36296,17.3318 c -2.94964,9.5324 -5.68843,18.31 -6.08621,19.5057 -0.39779,1.1956 -0.96616,2.4169 -1.26305,2.7137 -0.29688,0.2969 -1.18776,0.6191 -1.97971,0.7161 l -1.43993,0.1763 z m 24.80121,-5.3073 c -0.64924,-0.1682 -1.52428,-0.7429 -1.94453,-1.2772 -0.44456,-0.5651 -0.76408,-1.5189 -0.76408,-2.2807 v -1.3093 l 5.078,-5.1248 5.078,-5.1247 -1.84548,-1.9424 c -1.01501,-1.0683 -3.21677,-3.3803 -4.8928,-5.138 l -3.04733,-3.1956 v -1.2592 c 0,-0.6926 0.2718,-1.6473 0.60399,-2.1215 0.3322,-0.4743 1.14128,-1.0868 1.79795,-1.3612 0.75035,-0.3136 1.58632,-0.394 2.24998,-0.2164 0.69359,0.1854 3.25449,2.5847 7.46179,6.9907 l 6.40578,6.7084 v 1.7668 1.7668 l -6.57442,6.5485 c -4.14063,4.1244 -6.91721,6.6091 -7.50041,6.7122 -0.50931,0.09 -1.4572,0.026 -2.10644,-0.1424 z m -38.03736,-2.2412 c -1.30396,-1.2733 -4.30564,-4.3418 -6.67041,-6.8191 l -4.29955,-4.5041 v -1.5833 -1.5834 l 6.38922,-6.4421 c 3.51407,-3.5432 6.8358,-6.6773 7.38161,-6.9648 0.59658,-0.3142 1.44395,-0.4323 2.12448,-0.2962 0.62265,0.1245 1.55115,0.6455 2.06333,1.1577 l 0.93123,0.9312 v 1.6792 1.6791 l -4.98663,5.0325 -4.98663,5.0327 4.80144,4.8403 4.80143,4.8403 v 1.5747 1.5749 l -1.08268,1.0826 -1.08267,1.0827 h -1.50668 -1.50667 z"
         style="fill:url(#linearGradient133)"
         id="path1-1" /></g><ellipse
       style="opacity:0.629091;fill:url(#linearGradient134);fill-opacity:1;stroke:none;stroke-width:8.80352;stroke-linecap:round;stroke-linejoin:round;stroke-miterlimit:27.4;stroke-dasharray:none;stroke-opacity:1"
       id="path76-8-2-7-4"
       cx="2240.6711"
       cy="795.68152"
       rx="121.89986"
       ry="5.2939367" /></g></svg>
