<?xml version="1.0" encoding="UTF-8" standalone="no"?>
<!-- Created with Inkscape (http://www.inkscape.org/) -->

<svg
   width="264.48096mm"
   height="214.7742mm"
   viewBox="-12 -12 291.045 236.34578"
   version="1.1"
   id="svg1"
   xml:space="preserve"
   inkscape:export-filename="section5.svg"
   inkscape:export-xdpi="96"
   inkscape:export-ydpi="96"
   inkscape:version="1.3.2 (091e20e, 2023-11-25, custom)"
   sodipodi:docname="icons_manual.svg"
   xmlns:inkscape="http://www.inkscape.org/namespaces/inkscape"
   xmlns:sodipodi="http://sodipodi.sourceforge.net/DTD/sodipodi-0.dtd"
   xmlns:xlink="http://www.w3.org/1999/xlink"
   xmlns="http://www.w3.org/2000/svg"
   xmlns:svg="http://www.w3.org/2000/svg"><sodipodi:namedview
     id="namedview1"
     pagecolor="#ffffff"
     bordercolor="#000000"
     borderopacity="0.25"
     inkscape:showpageshadow="2"
     inkscape:pageopacity="0.0"
     inkscape:pagecheckerboard="0"
     inkscape:deskcolor="#d1d1d1"
     inkscape:document-units="mm"
     showguides="true"
     inkscape:zoom="0.36945288"
     inkscape:cx="174.58248"
     inkscape:cy="315.33115"
     inkscape:window-width="2560"
     inkscape:window-height="1369"
     inkscape:window-x="1912"
     inkscape:window-y="-8"
     inkscape:window-maximized="1"
     inkscape:current-layer="layer1"><sodipodi:guide
       position="-1489.2577,5.4532358"
       orientation="0,-1"
       id="guide95"
       inkscape:locked="false" /><sodipodi:guide
       position="-1394.6883,230.84363"
       orientation="0,-1"
       id="guide96"
       inkscape:locked="false" /><sodipodi:guide
       position="-1947.6516,30.508867"
       orientation="0,-1"
       id="guide151"
       inkscape:locked="false" /></sodipodi:namedview><defs
     id="defs1"><linearGradient
       id="swatch150"
       inkscape:swatch="solid"><stop
         style="stop-color:#0b619a;stop-opacity:1;"
         offset="0"
         id="stop150" /></linearGradient><linearGradient
       id="swatch149"
       inkscape:swatch="solid"><stop
         style="stop-color:#64747f;stop-opacity:1;"
         offset="0"
         id="stop149" /></linearGradient><linearGradient
       id="swatch148"
       inkscape:swatch="solid"><stop
         style="stop-color:#e07d00;stop-opacity:1;"
         offset="0"
         id="stop148" /></linearGradient><linearGradient
       id="swatch147"
       inkscape:swatch="solid"><stop
         style="stop-color:#ffffff;stop-opacity:1;"
         offset="0"
         id="stop147" /></linearGradient><linearGradient
       id="swatch145"
       inkscape:swatch="solid"><stop
         style="stop-color:#0b619a;stop-opacity:1;"
         offset="0"
         id="stop145" /></linearGradient><linearGradient
       id="swatch144"
       inkscape:swatch="solid"><stop
         style="stop-color:#ffffff;stop-opacity:1;"
         offset="0"
         id="stop144" /></linearGradient><linearGradient
       id="swatch143"
       inkscape:swatch="solid"><stop
         style="stop-color:#0b619a;stop-opacity:1;"
         offset="0"
         id="stop143" /></linearGradient><linearGradient
       id="swatch142"
       inkscape:swatch="solid"><stop
         style="stop-color:#92e3de;stop-opacity:1;"
         offset="0"
         id="stop142" /></linearGradient><linearGradient
       id="swatch141"
       inkscape:swatch="solid"><stop
         style="stop-color:#17587f;stop-opacity:1;"
         offset="0"
         id="stop141" /></linearGradient><linearGradient
       id="swatch140"
       inkscape:swatch="solid"><stop
         style="stop-color:#e07d00;stop-opacity:1;"
         offset="0"
         id="stop140" /></linearGradient><linearGradient
       id="swatch138"
       inkscape:swatch="solid"><stop
         style="stop-color:#e07d00;stop-opacity:1;"
         offset="0"
         id="stop138" /></linearGradient><linearGradient
       id="swatch133"
       inkscape:swatch="solid"><stop
         style="stop-color:#17587f;stop-opacity:1;"
         offset="0"
         id="stop133" /></linearGradient><linearGradient
       id="swatch132"
       inkscape:swatch="solid"><stop
         style="stop-color:#57a0ab;stop-opacity:1;"
         offset="0"
         id="stop132" /></linearGradient><linearGradient
       id="swatch131"
       inkscape:swatch="solid"><stop
         style="stop-color:#09688b;stop-opacity:1;"
         offset="0"
         id="stop131" /></linearGradient><linearGradient
       id="swatch130"
       inkscape:swatch="solid"><stop
         style="stop-color:#09688b;stop-opacity:1;"
         offset="0"
         id="stop130" /></linearGradient><linearGradient
       id="swatch129"
       inkscape:swatch="solid"><stop
         style="stop-color:#4be6ca;stop-opacity:1;"
         offset="0"
         id="stop129" /></linearGradient><linearGradient
       id="swatch128"
       inkscape:swatch="solid"><stop
         style="stop-color:#4be6ca;stop-opacity:1;"
         offset="0"
         id="stop128" /></linearGradient><linearGradient
       id="swatch119"
       inkscape:swatch="solid"><stop
         style="stop-color:#006e98;stop-opacity:1;"
         offset="0"
         id="stop119" /></linearGradient><linearGradient
       id="swatch118"
       inkscape:swatch="solid"><stop
         style="stop-color:#58cdc1;stop-opacity:1;"
         offset="0"
         id="stop118" /></linearGradient><inkscape:path-effect
       effect="bspline"
       id="path-effect117"
       is_visible="true"
       lpeversion="1.3"
       weight="33.333333"
       steps="2"
       helper_size="0"
       apply_no_weight="true"
       apply_with_weight="true"
       only_selected="false"
       uniform="false" /><linearGradient
       id="swatch116"
       inkscape:swatch="solid"><stop
         style="stop-color:#5d7b8f;stop-opacity:1;"
         offset="0"
         id="stop116" /></linearGradient><linearGradient
       id="swatch115"
       inkscape:swatch="solid"><stop
         style="stop-color:#58b8c5;stop-opacity:1;"
         offset="0"
         id="stop115" /></linearGradient><linearGradient
       id="swatch114"
       inkscape:swatch="solid"><stop
         style="stop-color:#0a5789;stop-opacity:1;"
         offset="0"
         id="stop114" /></linearGradient><linearGradient
       id="swatch100"
       inkscape:swatch="solid"><stop
         style="stop-color:#000000;stop-opacity:1;"
         offset="0"
         id="stop100" /></linearGradient><linearGradient
       id="swatch98"
       inkscape:swatch="solid"><stop
         style="stop-color:#076690;stop-opacity:1;"
         offset="0"
         id="stop98" /></linearGradient><linearGradient
       id="swatch97"
       inkscape:swatch="solid"><stop
         style="stop-color:#d9dee1;stop-opacity:1;"
         offset="0"
         id="stop97" /></linearGradient><linearGradient
       id="swatch94"
       inkscape:swatch="solid"><stop
         style="stop-color:#e07d00;stop-opacity:1;"
         offset="0"
         id="stop94" /></linearGradient><linearGradient
       id="swatch93"
       inkscape:swatch="solid"><stop
         style="stop-color:#006694;stop-opacity:1;"
         offset="0"
         id="stop93" /></linearGradient><linearGradient
       id="swatch89"
       inkscape:swatch="solid"><stop
         style="stop-color:#8a8a8a;stop-opacity:1;"
         offset="0"
         id="stop89" /></linearGradient><linearGradient
       id="swatch88"
       inkscape:swatch="solid"><stop
         style="stop-color:#474747;stop-opacity:1;"
         offset="0"
         id="stop88" /></linearGradient><linearGradient
       id="swatch87"
       inkscape:swatch="solid"
       inkscape:label="blue"><stop
         style="stop-color:#00568f;stop-opacity:1;"
         offset="0"
         id="stop87" /></linearGradient><linearGradient
       id="swatch82"
       inkscape:swatch="solid"><stop
         style="stop-color:#000000;stop-opacity:1;"
         offset="0"
         id="stop82" /></linearGradient><linearGradient
       id="swatch78"
       inkscape:swatch="solid"><stop
         style="stop-color:#989898;stop-opacity:1;"
         offset="0"
         id="stop78" /></linearGradient><linearGradient
       id="swatch77"
       inkscape:swatch="solid"
       inkscape:label="light gray"><stop
         style="stop-color:#989898;stop-opacity:1;"
         offset="0"
         id="stop77" /></linearGradient><linearGradient
       inkscape:collect="always"
       xlink:href="#swatch94"
       id="linearGradient118"
       x1="-1003.5508"
       y1="1305.408"
       x2="-934.70544"
       y2="1305.408"
       gradientUnits="userSpaceOnUse"
       gradientTransform="matrix(1.2208716,0,0,1.2208716,221.65582,-295.0331)" /><linearGradient
       inkscape:collect="always"
       xlink:href="#swatch87"
       id="linearGradient119"
       x1="-1164.3695"
       y1="1207.5353"
       x2="-945.4306"
       y2="1207.5353"
       gradientUnits="userSpaceOnUse" /><linearGradient
       inkscape:collect="always"
       xlink:href="#swatch77"
       id="linearGradient120"
       gradientUnits="userSpaceOnUse"
       gradientTransform="translate(1898.8326,-17.623451)"
       x1="-158.19759"
       y1="813.30524"
       x2="85.602127"
       y2="813.30524" /><inkscape:path-effect
       effect="bspline"
       id="path-effect68-1-3-4-3-9-90"
       is_visible="true"
       lpeversion="1.3"
       weight="33.333333"
       steps="2"
       helper_size="0"
       apply_no_weight="true"
       apply_with_weight="true"
       only_selected="false"
       uniform="false" /><linearGradient
       inkscape:collect="always"
       xlink:href="#swatch144"
       id="linearGradient144"
       x1="-123.76943"
       y1="721.75854"
       x2="-83.906403"
       y2="721.75854"
       gradientUnits="userSpaceOnUse" /></defs><g
     inkscape:label="Layer 1"
     inkscape:groupmode="layer"
     id="layer1"
     transform="translate(-1729.0122,-582.13177)"><rect
       style="fill:#ffffff;fill-opacity:1;stroke:#ffffff;stroke-width:11.0044;stroke-linecap:square;stroke-linejoin:miter;stroke-miterlimit:27.4;stroke-dasharray:none;stroke-opacity:1"
       id="rect92-3"
       width="280.04071"
       height="225.34148"
       x="1722.5144"
       y="575.63397"
       rx="0"
       ry="0" /><ellipse
       style="opacity:0.629091;fill:url(#linearGradient120);fill-opacity:1;stroke:none;stroke-width:8.80352;stroke-linecap:round;stroke-linejoin:round;stroke-miterlimit:27.4;stroke-dasharray:none;stroke-opacity:1"
       id="path76-8-2-7"
       cx="1862.5348"
       cy="795.68152"
       rx="121.89986"
       ry="5.2939367" /><g
       id="g154"
       transform="matrix(0.98849432,0,0,0.98849432,32.392406,-3.6699276)"><g
         id="g121"
         transform="matrix(0.95763356,0,0,0.95763356,452.04698,44.008144)"><path
           style="fill:url(#linearGradient119);stroke-width:1.08704"
           d="m -1136.328,1314.5838 c -1.0113,-0.1775 -2.6893,-0.6053 -3.7287,-0.9505 -1.0395,-0.3453 -2.7376,-1.1653 -3.7737,-1.8223 -1.036,-0.6571 -4.1335,-3.4029 -6.8833,-6.1019 -2.7499,-2.6989 -5.7437,-6.0427 -6.653,-7.4306 -0.9092,-1.3878 -1.9407,-3.2651 -2.2921,-4.1717 -0.3514,-0.9066 -0.8287,-2.8719 -1.0608,-4.3674 l -0.4218,-2.719 0.4233,-2.8145 c 0.2592,-1.7234 0.9664,-3.9434 1.8241,-5.7261 l 1.4007,-2.9116 26.8364,-26.9105 c 15.2451,-15.2872 27.591,-27.3594 28.5834,-27.9498 l 1.7469,-1.0393 2.3293,0.015 c 1.4349,0.01 2.8106,0.2717 3.583,0.6838 0.6896,0.3679 2.3885,1.7305 3.7755,3.0279 1.3869,1.2974 2.657,2.2993 2.8224,2.2264 0.1654,-0.073 2.6592,-2.5506 5.5416,-5.506 l 5.2409,-5.3733 -16.3495,-16.2182 -16.3494,-16.2182 -3.4493,0.8006 -3.4494,0.8006 -5.8231,0.01 -5.8232,0.01 -3.2068,-0.8453 c -1.7637,-0.4649 -4.4544,-1.393 -5.9794,-2.0623 -1.525,-0.6693 -3.6632,-1.7563 -4.7516,-2.4155 -1.0883,-0.6592 -2.9455,-1.9325 -4.1269,-2.8295 -1.1815,-0.897 -3.6272,-3.1951 -5.435,-5.1069 -1.8078,-1.9118 -4.2883,-5.1014 -5.5124,-7.088 -1.224,-1.9867 -2.9122,-5.3765 -3.7514,-7.5331 -0.8392,-2.1565 -1.9284,-5.8426 -2.4203,-8.1913 l -0.8943,-4.2703 -0.013,-4.4644 c -0.01,-2.4554 0.1115,-4.9046 0.2634,-5.4427 0.1519,-0.538 0.6391,-1.3678 1.0827,-1.844 0.5136,-0.5513 1.2633,-0.8657 2.0638,-0.8657 0.6915,0 1.6892,0.29 2.2171,0.6444 0.5279,0.3544 5.4555,5.1149 10.9501,10.5787 6.0451,6.0113 10.5676,10.1986 11.4522,10.6036 0.8041,0.368 1.8988,0.6728 2.4325,0.6772 0.5338,0 1.6694,-0.1822 2.5234,-0.4145 l 1.5529,-0.4225 8.2706,-8.2131 c 4.5488,-4.5171 8.7852,-8.9854 9.4141,-9.9294 l 1.1435,-1.7165 v -2.0433 c 0,-1.1239 -0.184,-2.5351 -0.4088,-3.1362 -0.2249,-0.6011 -5.2037,-5.9042 -11.0641,-11.7846 l -10.6551,-10.6918 v -1.2634 c 0,-0.8142 0.3296,-1.593 0.9271,-2.1905 0.51,-0.5099 1.5857,-1.0507 2.3905,-1.2017 0.8048,-0.1509 3.401,-0.1734 5.7694,-0.05 2.3685,0.1236 6.0253,0.5842 8.1264,1.0237 2.1011,0.4394 5.4055,1.3301 7.3431,1.9793 1.9377,0.6492 4.9158,1.8826 6.6181,2.741 1.7023,0.8583 4.1628,2.2805 5.4678,3.1605 1.305,0.8799 3.6083,2.8353 5.1184,4.3454 1.5101,1.5101 3.4512,3.7938 4.3136,5.0749 0.8624,1.2811 2.0117,3.2065 2.5539,4.2787 0.5423,1.0722 1.3605,3.0812 1.8184,4.4644 0.4579,1.3833 1.0856,4.1746 1.3949,6.203 0.3092,2.0284 0.5574,5.0856 0.5514,6.7937 -0.01,1.7082 -0.2541,5.1147 -0.5512,7.5702 l -0.5402,4.4644 16.9606,16.9889 16.9606,16.9889 24.4914,-24.559 24.49145,-24.5591 2.84137,-7.1471 2.84138,-7.1472 1.58367,-1.6019 c 0.87102,-0.881 5.52642,-5.3138 10.34533,-9.8506 4.81892,-4.5368 9.36099,-8.6487 10.09349,-9.1376 0.7325,-0.4888 2.07781,-1.1815 2.98958,-1.5393 0.91176,-0.3577 2.44595,-0.6504 3.40931,-0.6504 0.96336,0 2.31371,0.2443 3.00078,0.5429 0.68707,0.2986 4.65577,3.9689 8.81934,8.1562 l 7.57011,7.6132 v 2.2486 2.2487 l -1.5004,3.0358 -1.5004,3.0359 -10.14593,10.2004 -10.14593,10.2005 -6.73011,2.6049 -6.73011,2.6049 -24.90913,24.7903 -24.9091,24.7902 11.0785,10.9805 c 6.0931,6.0392 12.7601,12.6216 14.8156,14.6274 l 3.7372,3.647 3.23617,-0.8083 c 1.77991,-0.4445 4.80846,-1.0169 6.7301,-1.2718 2.04264,-0.271 5.26767,-0.37 7.76423,-0.2383 2.48983,0.1313 5.48428,0.5662 7.1819,1.0431 1.60137,0.4499 4.30914,1.5 6.01727,2.3335 1.70813,0.8336 4.34615,2.2955 5.68148,3.4699 1.44464,1.2706 2.11387,1.9393 1.8426,3.7458 -0.27253,1.8149 -7.86993,5.3722 -5.55867,4.3816 1.72348,-0.7388 -2.65289,4.858 -1.91089,6.3314 0.742,1.4734 22.55979,8.455 23.33649,10.7311 l 1.41219,4.1384 0.0212,3.9699 0.0212,3.9698 -1.18566,1.1875 c -0.68636,0.6874 -1.65528,1.2227 -2.30086,1.271 l -1.11521,0.083 -4.68694,-7.2546 c -2.57781,-3.9901 -5.12367,-7.7255 -5.65746,-8.3009 -0.53379,-0.5754 -1.844,-1.4581 -2.91158,-1.9616 l -1.94106,-0.9154 h -2.79996 c -1.85883,0 -3.49849,0.2575 -4.87813,0.7737 -1.143,0.4277 -2.53181,1.2575 -3.08626,1.844 -0.55445,0.5866 -7.93899,11.8102 -16.41008,24.9414 -8.47107,13.1313 -15.46317,23.9368 -15.53787,24.0123 -0.075,0.075 -1.5009,-0.7923 -3.1691,-1.9284 -1.6683,-1.136 -5.0422,-4.0846 -7.4976,-6.5524 -2.4554,-2.4677 -5.0463,-5.475 -5.7574,-6.6827 -0.7111,-1.2078 -1.8795,-3.5618 -2.5965,-5.2312 -0.717,-1.6694 -1.5976,-4.503 -1.9569,-6.297 l -0.6534,-3.2618 0.2023,-5.4729 c 0.1304,-3.5279 0.4576,-6.413 0.9206,-8.1177 l 0.7183,-2.6447 -16.1759,-16.1455 -16.176,-16.1455 -5.6609,5.3884 c -3.1135,2.9636 -5.6609,5.4528 -5.6609,5.5315 0,0.079 1.0719,1.3054 2.382,2.726 1.3101,1.4206 2.7933,3.4563 3.296,4.5239 0.5415,1.15 0.9121,2.6531 0.9093,3.688 0,0.9608 -0.3231,2.4478 -0.7122,3.3043 l -0.7075,1.5573 -26.8439,26.574 c -15.727,15.5689 -27.6892,27.1077 -28.8851,27.8627 -1.1227,0.7088 -3.0894,1.6115 -4.3705,2.006 -1.2811,0.3945 -3.3774,0.8107 -4.6585,0.925 -1.2811,0.1142 -3.1567,0.062 -4.1681,-0.1151 z"
           id="path64"
           transform="matrix(0.91992886,0,0,0.91992886,2416.3571,-446.17837)"
           sodipodi:nodetypes="csssssscsscssccsssscccccccssssssssccsssssscscsscssscssssssssssssscscccccccssssssscccccccccccsscsssssssssscccsccssscsssscssssscsscccsssscscsssscc" /><path
           style="fill:none;fill-opacity:1;stroke:url(#linearGradient144);stroke-width:7.81313;stroke-linecap:round;stroke-linejoin:round;stroke-dasharray:none"
           d="m -87.812969,706.51737 c -10.6833,10.16077 -21.366601,20.32154 -32.049901,30.48231"
           id="path68-1-4-5-5-9-1"
           inkscape:path-effect="#path-effect68-1-3-4-3-9-90"
           inkscape:original-d="m -87.812969,706.51737 c -10.6833,10.16077 -21.366601,20.32154 -32.049901,30.48231"
           transform="rotate(-1.3991388,367.13877,-60223.733)"
           sodipodi:nodetypes="cc" /></g><g
         id="g64"
         transform="matrix(0.91992885,0,0,0.91992885,2803.9935,-440.08184)"
         style="stroke-width:1.08704"><path
           style="fill:url(#linearGradient118);stroke:#ffffff;stroke-width:20.5858;stroke-linecap:round;stroke-linejoin:bevel;stroke-dasharray:none;stroke-opacity:1;paint-order:stroke fill markers"
           d="m -997.39084,1334.9893 c -1.26484,-0.4282 -2.81356,-1.2613 -3.44156,-1.8514 -0.6282,-0.5899 -1.4916,-1.8094 -1.9189,-2.7098 -0.4273,-0.9004 -0.7868,-2.7485 -0.799,-4.1065 -0.015,-1.5897 0.3216,-3.1388 0.9426,-4.3483 0.5307,-1.0334 4.45072,-7.6396 8.71117,-14.6805 4.26045,-7.0409 11.88002,-19.6395 16.93236,-27.997 l 9.18611,-15.1955 1.59137,-1.0903 c 0.87527,-0.5999 2.52811,-1.1961 3.673,-1.3252 1.14489,-0.129 2.81544,0.012 3.71234,0.3037 0.89691,0.2959 2.29042,1.2273 3.0967,2.0696 0.80627,0.8423 4.11778,6.0102 7.35888,11.4845 3.2411,5.4741 10.65904,17.9511 16.4843,27.7263 5.82525,9.7754 10.98976,18.9255 11.47668,20.3336 l 0.88531,2.5603 -0.56614,2.36 -0.56614,2.36 -1.74808,1.7481 c -1.08328,1.0833 -2.54668,1.9552 -3.84794,2.2927 l -2.09987,0.5445 -33.38173,0.1499 -33.38173,0.1498 z m 37.01485,-25.1363 c 0.84295,-0.2939 1.81392,-1.1188 2.20353,-1.8724 l 0.69653,-1.3468 v -10.4871 -10.487 l -1.38541,-1.3855 -1.38541,-1.3853 h -1.71685 -1.71684 l -1.16335,1.1633 -1.16335,1.1633 v 11.314 11.3138 l 1.06641,0.9702 c 0.58652,0.5337 1.38631,1.0872 1.77733,1.23 0.39101,0.143 0.83907,0.2768 0.99567,0.2975 0.15662,0.021 0.96289,-0.199 1.79174,-0.488 z"
           id="path65" /></g><path
         style="opacity:1;fill:#ffffff;fill-opacity:1;stroke:#ffffff;stroke-width:7.60295;stroke-linecap:round;stroke-linejoin:bevel;stroke-dasharray:none;stroke-opacity:1;paint-order:stroke fill markers"
         d="m 1524.7359,763.39394 c 0,5.05684 0,10.11369 0,15.17053"
         id="path117"
         transform="matrix(1.2208716,0,0,1.2208716,57.598883,-188.92405)"
         inkscape:original-d="m 1524.7359,763.39394 c 0,5.05684 0,10.11369 0,15.17053"
         inkscape:path-effect="#path-effect117" /><circle
         style="opacity:1;fill:#ffffff;fill-opacity:1;stroke:none;stroke-width:7.93872;stroke-linecap:round;stroke-linejoin:bevel;stroke-dasharray:none;stroke-opacity:1;paint-order:stroke fill markers"
         id="path118"
         cx="1919.1658"
         cy="776.57605"
         r="4.7477789" /></g></g></svg>
