<?xml version="1.0" encoding="UTF-8" standalone="no"?>
<!-- Created with Inkscape (http://www.inkscape.org/) -->

<svg
   width="264.48083mm"
   height="214.77412mm"
   viewBox="-12 -12 291.045 236.3458"
   version="1.1"
   id="svg1"
   xml:space="preserve"
   inkscape:export-filename="section4.svg"
   inkscape:export-xdpi="96"
   inkscape:export-ydpi="96"
   inkscape:version="1.3.2 (091e20e, 2023-11-25, custom)"
   sodipodi:docname="icons_manual.svg"
   xmlns:inkscape="http://www.inkscape.org/namespaces/inkscape"
   xmlns:sodipodi="http://sodipodi.sourceforge.net/DTD/sodipodi-0.dtd"
   xmlns:xlink="http://www.w3.org/1999/xlink"
   xmlns="http://www.w3.org/2000/svg"
   xmlns:svg="http://www.w3.org/2000/svg"><sodipodi:namedview
     id="namedview1"
     pagecolor="#ffffff"
     bordercolor="#000000"
     borderopacity="0.25"
     inkscape:showpageshadow="2"
     inkscape:pageopacity="0.0"
     inkscape:pagecheckerboard="0"
     inkscape:deskcolor="#d1d1d1"
     inkscape:document-units="mm"
     showguides="true"
     inkscape:zoom="0.36945288"
     inkscape:cx="174.58248"
     inkscape:cy="315.33115"
     inkscape:window-width="2560"
     inkscape:window-height="1369"
     inkscape:window-x="1912"
     inkscape:window-y="-8"
     inkscape:window-maximized="1"
     inkscape:current-layer="layer1"><sodipodi:guide
       position="-1111.1218,5.4531518"
       orientation="0,-1"
       id="guide95"
       inkscape:locked="false" /><sodipodi:guide
       position="-1016.5524,230.84363"
       orientation="0,-1"
       id="guide96"
       inkscape:locked="false" /><sodipodi:guide
       position="-1569.5159,30.508792"
       orientation="0,-1"
       id="guide151"
       inkscape:locked="false" /></sodipodi:namedview><defs
     id="defs1"><linearGradient
       id="swatch150"
       inkscape:swatch="solid"><stop
         style="stop-color:#0b619a;stop-opacity:1;"
         offset="0"
         id="stop150" /></linearGradient><linearGradient
       id="swatch149"
       inkscape:swatch="solid"><stop
         style="stop-color:#64747f;stop-opacity:1;"
         offset="0"
         id="stop149" /></linearGradient><linearGradient
       id="swatch148"
       inkscape:swatch="solid"><stop
         style="stop-color:#e07d00;stop-opacity:1;"
         offset="0"
         id="stop148" /></linearGradient><linearGradient
       id="swatch147"
       inkscape:swatch="solid"><stop
         style="stop-color:#ffffff;stop-opacity:1;"
         offset="0"
         id="stop147" /></linearGradient><linearGradient
       id="swatch145"
       inkscape:swatch="solid"><stop
         style="stop-color:#0b619a;stop-opacity:1;"
         offset="0"
         id="stop145" /></linearGradient><linearGradient
       id="swatch144"
       inkscape:swatch="solid"><stop
         style="stop-color:#ffffff;stop-opacity:1;"
         offset="0"
         id="stop144" /></linearGradient><linearGradient
       id="swatch143"
       inkscape:swatch="solid"><stop
         style="stop-color:#0b619a;stop-opacity:1;"
         offset="0"
         id="stop143" /></linearGradient><linearGradient
       id="swatch142"
       inkscape:swatch="solid"><stop
         style="stop-color:#92e3de;stop-opacity:1;"
         offset="0"
         id="stop142" /></linearGradient><linearGradient
       id="swatch141"
       inkscape:swatch="solid"><stop
         style="stop-color:#17587f;stop-opacity:1;"
         offset="0"
         id="stop141" /></linearGradient><linearGradient
       id="swatch140"
       inkscape:swatch="solid"><stop
         style="stop-color:#e07d00;stop-opacity:1;"
         offset="0"
         id="stop140" /></linearGradient><linearGradient
       id="swatch138"
       inkscape:swatch="solid"><stop
         style="stop-color:#e07d00;stop-opacity:1;"
         offset="0"
         id="stop138" /></linearGradient><linearGradient
       id="swatch133"
       inkscape:swatch="solid"><stop
         style="stop-color:#17587f;stop-opacity:1;"
         offset="0"
         id="stop133" /></linearGradient><linearGradient
       id="swatch132"
       inkscape:swatch="solid"><stop
         style="stop-color:#57a0ab;stop-opacity:1;"
         offset="0"
         id="stop132" /></linearGradient><linearGradient
       id="swatch131"
       inkscape:swatch="solid"><stop
         style="stop-color:#09688b;stop-opacity:1;"
         offset="0"
         id="stop131" /></linearGradient><linearGradient
       id="swatch130"
       inkscape:swatch="solid"><stop
         style="stop-color:#09688b;stop-opacity:1;"
         offset="0"
         id="stop130" /></linearGradient><linearGradient
       id="swatch129"
       inkscape:swatch="solid"><stop
         style="stop-color:#4be6ca;stop-opacity:1;"
         offset="0"
         id="stop129" /></linearGradient><linearGradient
       id="swatch128"
       inkscape:swatch="solid"><stop
         style="stop-color:#4be6ca;stop-opacity:1;"
         offset="0"
         id="stop128" /></linearGradient><linearGradient
       id="swatch119"
       inkscape:swatch="solid"><stop
         style="stop-color:#006e98;stop-opacity:1;"
         offset="0"
         id="stop119" /></linearGradient><linearGradient
       id="swatch118"
       inkscape:swatch="solid"><stop
         style="stop-color:#58cdc1;stop-opacity:1;"
         offset="0"
         id="stop118" /></linearGradient><linearGradient
       id="swatch116"
       inkscape:swatch="solid"><stop
         style="stop-color:#5d7b8f;stop-opacity:1;"
         offset="0"
         id="stop116" /></linearGradient><linearGradient
       id="swatch115"
       inkscape:swatch="solid"><stop
         style="stop-color:#58b8c5;stop-opacity:1;"
         offset="0"
         id="stop115" /></linearGradient><linearGradient
       id="swatch114"
       inkscape:swatch="solid"><stop
         style="stop-color:#0a5789;stop-opacity:1;"
         offset="0"
         id="stop114" /></linearGradient><linearGradient
       id="swatch100"
       inkscape:swatch="solid"><stop
         style="stop-color:#000000;stop-opacity:1;"
         offset="0"
         id="stop100" /></linearGradient><linearGradient
       id="swatch98"
       inkscape:swatch="solid"><stop
         style="stop-color:#076690;stop-opacity:1;"
         offset="0"
         id="stop98" /></linearGradient><linearGradient
       id="swatch97"
       inkscape:swatch="solid"><stop
         style="stop-color:#d9dee1;stop-opacity:1;"
         offset="0"
         id="stop97" /></linearGradient><linearGradient
       id="swatch94"
       inkscape:swatch="solid"><stop
         style="stop-color:#e07d00;stop-opacity:1;"
         offset="0"
         id="stop94" /></linearGradient><linearGradient
       id="swatch93"
       inkscape:swatch="solid"><stop
         style="stop-color:#006694;stop-opacity:1;"
         offset="0"
         id="stop93" /></linearGradient><linearGradient
       id="swatch89"
       inkscape:swatch="solid"><stop
         style="stop-color:#8a8a8a;stop-opacity:1;"
         offset="0"
         id="stop89" /></linearGradient><linearGradient
       id="swatch88"
       inkscape:swatch="solid"><stop
         style="stop-color:#474747;stop-opacity:1;"
         offset="0"
         id="stop88" /></linearGradient><linearGradient
       id="swatch87"
       inkscape:swatch="solid"
       inkscape:label="blue"><stop
         style="stop-color:#00568f;stop-opacity:1;"
         offset="0"
         id="stop87" /></linearGradient><linearGradient
       id="swatch82"
       inkscape:swatch="solid"><stop
         style="stop-color:#000000;stop-opacity:1;"
         offset="0"
         id="stop82" /></linearGradient><linearGradient
       id="swatch78"
       inkscape:swatch="solid"><stop
         style="stop-color:#989898;stop-opacity:1;"
         offset="0"
         id="stop78" /></linearGradient><linearGradient
       id="swatch77"
       inkscape:swatch="solid"
       inkscape:label="light gray"><stop
         style="stop-color:#989898;stop-opacity:1;"
         offset="0"
         id="stop77" /></linearGradient><linearGradient
       inkscape:collect="always"
       xlink:href="#swatch77"
       id="linearGradient127"
       gradientUnits="userSpaceOnUse"
       gradientTransform="translate(1520.696,-17.623394)"
       x1="-158.19759"
       y1="813.30524"
       x2="85.602127"
       y2="813.30524" /><linearGradient
       inkscape:collect="always"
       xlink:href="#swatch87"
       id="linearGradient131"
       x1="-168.54973"
       y1="1289.8232"
       x2="26.031973"
       y2="1289.8232"
       gradientUnits="userSpaceOnUse" /><linearGradient
       inkscape:collect="always"
       xlink:href="#swatch77"
       id="linearGradient140"
       x1="28.31283"
       y1="1113.1438"
       x2="52.89975"
       y2="1113.1438"
       gradientUnits="userSpaceOnUse" /><linearGradient
       inkscape:collect="always"
       xlink:href="#swatch140"
       id="linearGradient139"
       gradientUnits="userSpaceOnUse"
       x1="35.065048"
       y1="1303.5114"
       x2="120.64967"
       y2="1303.5114"
       gradientTransform="matrix(1.7980814,0,0,1.7980814,-342.15094,119.58592)" /></defs><g
     inkscape:label="Layer 1"
     inkscape:groupmode="layer"
     id="layer1"
     transform="translate(-1350.8759,-582.13177)"><rect
       style="fill:#ffffff;fill-opacity:1;stroke:#ffffff;stroke-width:11.0044;stroke-linecap:square;stroke-linejoin:miter;stroke-miterlimit:27.4;stroke-dasharray:none;stroke-opacity:1"
       id="rect92-43"
       width="280.04071"
       height="225.34148"
       x="1344.3781"
       y="575.63397"
       rx="0"
       ry="0" /><ellipse
       style="opacity:0.629091;fill:url(#linearGradient127);fill-opacity:1;stroke:none;stroke-width:8.80352;stroke-linecap:round;stroke-linejoin:round;stroke-miterlimit:27.4;stroke-dasharray:none;stroke-opacity:1"
       id="path76-8-2-7-9"
       cx="1484.3984"
       cy="795.68152"
       rx="121.89986"
       ry="5.2939367" /><g
       id="g153"
       transform="matrix(0.91989561,0,0,0.91989561,130.52351,49.185564)"><g
         id="g125"
         transform="translate(1523.4758,-606.85746)"><g
           id="g130"
           transform="matrix(0.94843077,0,0,0.94843077,-4.7679965,64.545001)"><path
             style="fill:url(#linearGradient131)"
             d="m -108.01804,1403.4547 c -1.61716,-0.5209 -4.05015,-1.6644 -5.40664,-2.5412 -1.35649,-0.8767 -3.35257,-2.5109 -4.43572,-3.6315 -1.08315,-1.1206 -2.53917,-2.9943 -3.23559,-4.1637 -0.69641,-1.1694 -1.62246,-3.1397 -2.05787,-4.3786 -0.43542,-1.2388 -0.96909,-3.7029 -1.18594,-5.4757 l -0.39427,-3.2232 0.57101,-3.3089 0.57101,-3.3089 1.37087,-2.8354 c 0.75398,-1.5595 2.21341,-3.876 3.24318,-5.1477 l 1.8723,-2.3123 2.9333,-1.9951 c 1.61332,-1.0973 4.05756,-2.3901 5.43166,-2.8729 l 2.49835,-0.8778 4.07622,-0.1913 4.076217,-0.1914 2.6735,0.6277 c 1.470426,0.3452 3.916155,1.2704 5.434955,2.0559 l 2.761454,1.4282 2.915723,2.9324 2.915723,2.9325 1.418582,2.7174 c 0.780219,1.4946 1.695505,3.7909 2.033967,5.1028 l 0.615386,2.3853 v 3.5759 3.576 l -0.609384,2.3517 c -0.335161,1.2934 -1.20981,3.5439 -1.943663,5.0012 l -1.33428,2.6495 -2.590534,2.7461 -2.590534,2.7461 -2.550654,1.4976 c -1.402859,0.8236 -3.748246,1.8609 -5.211971,2.3051 l -2.661316,0.8076 -4.132381,-0.018 -4.13237,-0.018 z m 62.808166,-43.3114 -0.693045,-0.4033 0.04411,-8.2226 0.04411,-8.2225 -8.279919,-0.1941 -8.27992,-0.1941 -2.13516,-1.0537 c -1.174339,-0.5795 -2.782382,-1.5902 -3.57343,-2.246 l -1.438268,-1.1924 -1.22585,-2.4901 -1.22585,-2.49 0.161845,-6.9103 0.161845,-6.9102 1.00587,-2.4375 c 0.553229,-1.3406 1.591904,-3.4209 2.308168,-4.6228 0.716264,-1.2019 2.787205,-3.761 4.602092,-5.6868 1.814886,-1.9258 7.492473,-7.0881 12.616859,-11.4717 5.124385,-4.3837 11.336245,-9.9866 13.804131,-12.4509 2.467887,-2.4644 5.597682,-5.8782 6.9551,-7.5864 1.357418,-1.7081 3.50437,-4.6779 4.771004,-6.5995 1.266634,-1.9217 3.08868,-5.1292 4.048991,-7.1278 0,0 1.30847,-2.5924 2.49905,-3.0368 1.0201,-0.3807 10.1768031,-0.4033 10.1768031,-0.4033 l 10.9298332,0.1938 2.3292662,0.6523 c 1.2810965,0.3588 3.5739689,1.2617 5.0952721,2.0066 1.5213034,0.7448 3.9246664,2.31 5.3408084,3.4781 1.416141,1.1681 3.369326,3.1233 4.340411,4.345 0.971085,1.2217 2.527296,3.7936 3.458246,5.7152 l 1.692636,3.4939 0.58023,2.7175 0.580229,2.7175 c 0,0 -0.176134,9.8894 -0.975368,11.3079 -0.57365,1.0181 -3.054666,1.7205 -3.054666,1.7205 l -28.5577401,36.7526 c 0,0 -1.1575582,7.5473 -2.4941866,8.8317 -1.7230543,1.6556 -11.3093563,1.2107 -11.3093563,1.2107 l -6.603515,-0.1847 -6.533207,7.9591 c -3.593264,4.3775 -6.96312,8.2973 -7.488569,8.7106 -0.525449,0.4133 -1.412214,0.7462 -1.970589,0.7397 -0.558375,-0.01 -1.327097,-0.1933 -1.708271,-0.4152 z m -73.843476,-24.5783 c -0.64055,-0.2847 -1.54606,-0.933 -2.01225,-1.4406 -0.46619,-0.5077 -1.05806,-1.4471 -1.31526,-2.0876 l -0.46766,-1.1647 -0.184,-5.4349 -0.184,-5.435 0.42431,-5.2408 0.42431,-5.2409 0.9458,-3.499 c 0.52019,-1.9244 1.54417,-4.8069 2.27552,-6.4055 0.73134,-1.5985 2.08002,-4.1293 2.99706,-5.6239 0.91703,-1.4946 2.60707,-3.9674 3.75562,-5.495 1.14856,-1.5276 3.67961,-4.4589 5.62455,-6.514 1.94494,-2.0551 5.3049,-5.2614 7.466567,-7.1251 2.161669,-1.8637 6.632031,-5.5708 9.934139,-8.238 3.302107,-2.6672 7.514699,-6.359 9.361316,-8.204 l 3.357485,-3.3545 2.161921,-3.2492 c 1.189056,-1.787 2.520425,-4.0855 2.958597,-5.1077 0.438172,-1.0222 1.061323,-2.8799 1.38478,-4.1282 l 0.588103,-2.2695 -0.0046,-3.4379 -0.0046,-3.4378 -0.554762,-2.0844 c -0.305118,-1.1463 -0.993966,-2.9806 -1.530771,-4.0762 -0.536806,-1.0955 -1.813671,-3.0292 -2.837478,-4.2971 l -1.861467,-2.3053 -2.717477,-1.8555 c -1.494613,-1.0206 -3.934225,-2.3081 -5.421361,-2.8613 -1.487136,-0.5531 -4.45695,-1.2721 -6.599588,-1.5976 l -3.895704,-0.592 -3.072703,0.2587 c -1.689987,0.1423 -4.397757,0.5919 -6.017267,0.9991 -1.61951,0.4071 -4.51682,1.5166 -6.43847,2.4655 l -3.4939,1.7253 -2.63847,2.1841 c -1.45116,1.2013 -3.43532,3.2654 -4.40925,4.587 -0.97393,1.3216 -2.25355,3.3637 -2.84361,4.5381 -0.59005,1.1743 -1.57362,3.6809 -2.1857,5.5701 l -1.11289,3.4349 -1.28898,1.5059 -1.28898,1.5059 -1.50125,0.4042 -1.50124,0.4043 -14.6839,-3.1081 c -8.07614,-1.7095 -15.38268,-3.3047 -16.23674,-3.5449 -0.85406,-0.2403 -2.01339,-0.7642 -2.57627,-1.1644 -0.56288,-0.4002 -1.30534,-1.4322 -1.6499,-2.2933 -0.34456,-0.8611 -0.62624,-2.3046 -0.62596,-3.2077 2.7e-4,-0.9032 0.42675,-3.4015 0.94772,-5.5518 0.52097,-2.1503 1.37012,-5.0328 1.887,-6.4055 0.51689,-1.3727 1.68588,-3.9793 2.59776,-5.7925 0.91188,-1.8132 2.53822,-4.6083 3.61407,-6.2113 1.07586,-1.6031 2.95869,-4.1484 4.18408,-5.6563 1.22539,-1.5079 3.61092,-4.041 5.30117,-5.6291 1.69026,-1.5881 4.71934,-4.0606 6.7313,-5.4945 2.01196,-1.4339 5.69926,-3.6658 8.19398,-4.9598 2.49473,-1.2941 6.33802,-3.0297 8.54065,-3.8571 2.20262,-0.8273 6.18846,-2.0372 8.85741,-2.6887 2.66895,-0.6514 6.86163,-1.4942 9.31706,-1.8729 l 4.46443,-0.6885 h 9.122955 l 9.12296,-0.01 4.234334,0.6823 c 2.328883,0.3752 5.648088,1.0359 7.376009,1.4683 1.727922,0.4324 4.801279,1.3228 6.829681,1.9788 2.028403,0.656 6.036578,2.3125 8.907056,3.6811 2.870478,1.3686 6.888463,3.6016 8.928854,4.9622 2.040392,1.3607 5.13106,3.7064 6.868152,5.2128 1.737092,1.5063 4.330414,4.1008 5.762939,5.7655 1.432525,1.6647 3.646843,4.5989 4.920706,6.5206 1.273864,1.9216 2.987737,4.9037 3.808606,6.6269 0.820869,1.7232 2.010861,4.693 2.644426,6.5996 0.633565,1.9066 1.463385,5.1261 1.844044,7.1545 l 0.692106,3.688 0.0083,5.435 0.0083,5.435 -0.667636,3.688 c -0.367199,2.0284 -1.274355,5.5013 -2.015902,7.7176 -0.741547,2.2163 -2.152538,5.6229 -3.135535,7.5701 -0.982997,1.9473 -2.803733,5.0254 -4.04608,6.8403 -1.242347,1.8149 -3.813324,5.0517 -5.713282,7.1927 -1.899957,2.1411 -5.36099,5.6373 -7.691184,7.7694 -2.330194,2.132 -6.769793,6.0504 -9.865776,8.7076 -3.095984,2.6571 -7.181232,6.236 -9.078331,7.9531 -1.897099,1.7172 -4.627069,4.5488 -6.066601,6.2925 -1.439531,1.7438 -3.257793,4.2248 -4.040582,5.5134 -0.782788,1.2886 -1.854832,3.6118 -2.38232,5.1627 -0.527487,1.5509 -1.12993,4.3107 -1.338763,6.133 -0.208833,1.8222 -0.382103,4.536 -0.385046,6.0306 -0.0029,1.4946 -0.191837,3.3891 -0.419765,4.2099 -0.227928,0.8209 -0.969407,2.0967 -1.647732,2.8351 l -1.233317,1.3426 -1.552844,0.3584 -1.552844,0.3585 -16.110758,-0.01 -16.11076,-0.01 z"
             id="path125"
             sodipodi:nodetypes="cssssscccsscsscccsscccsscccssccccsccccccccccsscccccsssssssssccssssscccsccsccsscccsscccccsssssssscssscccssscccccscscsssscccccscsssssssssscccsccccssscsssssscccssssssssssssssscccccc" /></g></g><g
         id="g140"
         transform="matrix(1.1292766,0,0,1.1292766,1504.0395,-482.15382)"><path
           d="m 51.661829,1103.8712 1.237921,1.2901 -0.0204,6.0004 v 8.0221 l -1.8775,1.8774 -1.87751,1.8765 -3.53873,1.0513 c -1.94658,0.5782 -4.15585,1.0303 -4.90903,1.0064 -0.7532,-0.025 -2.64298,-0.4417 -4.20014,-0.928 -1.55712,-0.4862 -3.59292,-1.3837 -4.52402,-1.9938 -0.93109,-0.6101 -2.13148,-2.1575 -2.6669,-3.4389 l -0.97269,-2.3294 0.11544,-6.7397 0.0746,-4.5326 1.832588,-1.234"
           style="fill:url(#linearGradient140);stroke:none;stroke-width:57.4683;stroke-linecap:round;stroke-linejoin:bevel;stroke-dasharray:none;stroke-opacity:1;paint-order:stroke fill markers"
           id="path1-4"
           sodipodi:nodetypes="ccccccccssccccc" /><path
           d="m 40.336186,1038.7848 4.420259,0.7331 4.420277,0.7324 4.187516,2.0617 4.188488,2.0617 3.124635,3.1325 c 1.718796,1.7228 3.979558,4.7084 5.023469,6.6352 1.04393,1.9267 2.306319,5.0376 2.805591,6.9125 0.499271,1.8753 0.912055,5.0604 0.915467,7.0775 0.0038,2.0174 -0.450852,5.4428 -1.012458,7.6128 -0.561589,2.1701 -1.977049,5.5389 -3.145005,7.4848 -1.167976,1.946 -3.277885,4.5849 -4.688889,5.8651 l -2.566043,2.3285 -1.839968,2.9674 -2.867722,2.819 -24.572319,-0.1312 -2.622499,-2.0734 -1.788637,-3.1793 -3.662872,-3.9839 c -2.014265,-2.1908 -4.368475,-5.5267 -5.231968,-7.4129 -0.863491,-1.886 -1.897371,-5.654 -2.29838,-8.3731 l -0.729283,-4.943 1.030877,-4.9139 1.030893,-4.914 2.163579,-3.5977 c 1.189933,-1.9791 3.671304,-4.9816 5.514175,-6.6723 1.842854,-1.6906 5.048276,-3.9035 7.123045,-4.9176 2.074808,-1.0142 5.415643,-2.1742 7.424657,-2.5776 z"
           style="fill:url(#linearGradient139);stroke:#ffffff;stroke-width:10.7191;stroke-linecap:round;stroke-linejoin:bevel;stroke-dasharray:none;stroke-opacity:1;paint-order:stroke fill markers"
           id="path1-5"
           sodipodi:nodetypes="ccccccccccccccccccccccccccccc" /></g></g></g></svg>
