<?xml version="1.0" encoding="UTF-8"?>
<!DOCTYPE svg PUBLIC "-//W3C//DTD SVG 1.1//EN" "http://www.w3.org/Graphics/SVG/1.1/DTD/svg11.dtd">
<!-- Creator: CorelDRAW 2017 -->
<svg xmlns="http://www.w3.org/2000/svg" xml:space="preserve" width="499px" height="216px" version="1.1" style="shape-rendering:geometricPrecision; text-rendering:geometricPrecision; image-rendering:optimizeQuality; fill-rule:evenodd; clip-rule:evenodd"
viewBox="0 0 19651 8501"
 xmlns:xlink="http://www.w3.org/1999/xlink">
 <defs>
  <style type="text/css">
   <![CDATA[
    .fil1 {fill:#00568F}
    .fil0 {fill:#292A2A;fill-rule:nonzero}
   ]]>
  </style>
 </defs>
 <g id="Layer_x0020_1">
  <metadata id="CorelCorpID_0Corel-Layer"/>
  <path class="fil0" d="M4491 3316l720 0 0 -1204 673 0c942,0 1274,-535 1274,-1060 0,-531 -327,-1052 -1279,-1052l-1388 0 0 3316zm720 -1762l0 -981 668 0c379,0 564,204 564,488 0,279 -180,493 -569,493l-663 0z"/>
  <polygon id="1" class="fil0" points="8541,3316 9266,3316 9266,1985 10507,0 9687,0 8911,1279 8901,1279 8129,0 7300,0 8541,1985 "/>
  <path id="2" class="fil0" d="M10890 3316l720 0 0 -1204 673 0c942,0 1274,-535 1274,-1060 0,-531 -327,-1052 -1279,-1052l-1388 0 0 3316zm720 -1762l0 -981 668 0c379,0 564,204 564,488 0,279 -180,493 -569,493l-663 0z"/>
  <polygon id="3" class="fil0" points="14097,3316 16532,3316 16532,2690 14812,2690 14812,1909 16328,1909 16328,1355 14812,1355 14812,625 16513,625 16513,0 14097,0 "/>
  <path class="fil1" d="M1853 2730c-106,212 -397,372 -672,372 -459,0 -733,-328 -733,-893 0,-564 274,-883 733,-883 280,0 594,101 672,314l0 1090zm189 -1685l404 127c-58,87 -162,212 -162,467l0 1873c0,642 -470,912 -1108,912 -163,0 -374,-35 -562,-78l0 -342c173,48 388,95 562,92 448,-5 677,-196 677,-589l0 -304c-201,149 -464,227 -705,227 -762,0 -1148,-449 -1148,-1221 0,-772 442,-1211 1181,-1211 282,0 539,78 769,212l92 -165z"/>
  <polygon class="fil1" points="2912,2372 3528,2079 3855,2628 3239,2922 "/>
  <path class="fil0" d="M4492 5990l116 0 0 -605 474 0 35 0 305 605 131 0 -324 -619c230,-54 330,-239 330,-411 0,-207 -127,-420 -479,-420l-588 0 0 1450zm116 -702l0 -647 472 0c263,0 361,160 361,321 0,156 -100,326 -365,326l-468 0z"/>
  <polygon id="1" class="fil0" points="5886,5990 6866,5990 6866,5884 6002,5884 6002,5300 6771,5300 6771,5201 6002,5201 6002,4645 6854,4645 6854,4540 5886,4540 "/>
  <path id="2" class="fil0" d="M7086 5990l128 0 145 -391 711 0 147 391 129 0 -556 -1450 -147 0 -557 1450zm628 -1338l4 0 317 849 -638 0 317 -849z"/>
  <polygon id="3" class="fil0" points="8605,5990 9570,5990 9570,5884 8721,5884 8721,4540 8605,4540 "/>
  <polygon id="4" class="fil0" points="9697,5505 10277,5505 10277,5402 9697,5402 "/>
  <polygon id="5" class="fil0" points="10845,5990 10961,5990 10961,4645 11506,4645 11506,4540 10300,4540 10300,4645 10845,4645 "/>
  <polygon id="6" class="fil0" points="11756,5990 11872,5990 11872,4540 11756,4540 "/>
  <polygon id="7" class="fil0" points="12243,5990 12357,5990 12357,4689 12933,5534 13509,4693 13509,5990 13623,5990 13623,4540 13484,4540 12933,5352 12382,4540 12243,4540 "/>
  <polygon id="8" class="fil0" points="13994,5990 14974,5990 14974,5884 14110,5884 14110,5300 14879,5300 14879,5201 14110,5201 14110,4645 14962,4645 14962,4540 13994,4540 "/>
  <path id="9" class="fil0" d="M15768 5870c112,77 302,145 516,145 342,0 505,-170 505,-392 0,-569 -876,-273 -876,-727 0,-157 134,-276 362,-276 168,0 305,46 409,98l47 -100c-114,-56 -265,-103 -460,-103 -302,0 -480,168 -480,383 0,564 876,276 876,725 0,164 -122,286 -383,286 -187,0 -353,-62 -456,-132l-60 93z"/>
  <path id="10" class="fil0" d="M17094 5990l394 0c515,0 764,-278 764,-740 0,-441 -265,-710 -764,-710l-394 0 0 1450zm116 -101l0 -1248 284 0c416,0 640,234 640,609 0,396 -209,639 -640,639l-284 0z"/>
  <polygon id="11" class="fil0" points="18561,5990 18677,5990 18677,5574 19040,5165 19510,5990 19651,5990 19116,5078 19593,4540 19450,4540 18677,5416 18677,4540 18561,4540 "/>
  <polygon id="12" class="fil0" points="4492,8477 4608,8477 4608,7797 5350,7797 5350,7695 4608,7695 4608,7132 5443,7132 5443,7026 4492,7026 "/>
  <path id="13" class="fil0" d="M5650 7741c0,470 311,760 713,760 402,0 713,-290 713,-760 0,-450 -317,-740 -713,-740 -396,0 -713,290 -713,740zm120 0c0,-388 265,-636 593,-636 327,0 592,248 592,636 0,410 -261,657 -592,657 -332,0 -593,-247 -593,-657z"/>
  <path id="14" class="fil0" d="M7386 8477l116 0 0 -605 475 0 35 0 305 605 130 0 -323 -620c230,-54 329,-238 329,-410 0,-207 -126,-421 -478,-421l-589 0 0 1451zm116 -703l0 -646 473 0c263,0 360,159 360,321 0,155 -99,325 -364,325l-469 0z"/>
  <path id="15" class="fil0" d="M9309 8477l116 0 0 -603 444 0c356,0 480,-228 480,-427 0,-207 -122,-421 -478,-421l-562 0 0 1451zm116 -703l0 -646 446 0c267,0 362,161 362,321 0,155 -97,325 -364,325l-444 0z"/>
  <polygon id="16" class="fil0" points="11066,8477 11184,8477 11184,7882 11729,7026 11590,7026 11128,7772 11124,7772 10660,7026 10521,7026 11066,7882 "/>
  <polygon id="17" class="fil0" points="12388,8477 12504,8477 12504,7132 13049,7132 13049,7026 11843,7026 11843,7132 12388,7132 "/>
  <polygon id="18" class="fil0" points="13300,8477 13416,8477 13416,7791 14255,7791 14255,8477 14373,8477 14373,7026 14255,7026 14255,7685 13416,7685 13416,7026 13300,7026 "/>
  <path id="19" class="fil0" d="M14682 7741c0,470 311,760 713,760 402,0 713,-290 713,-760 0,-450 -317,-740 -713,-740 -396,0 -713,290 -713,740zm120 0c0,-388 265,-636 593,-636 327,0 592,248 592,636 0,410 -261,657 -592,657 -332,0 -593,-247 -593,-657z"/>
  <polygon id="20" class="fil0" points="16418,8477 16532,8477 16532,7196 17403,8477 17533,8477 17533,7026 17419,7026 17419,8309 16547,7026 16418,7026 "/>
 </g>
</svg>
