<?xml version="1.0" encoding="UTF-8" standalone="no"?>
<!-- Created with Inkscape (http://www.inkscape.org/) -->

<svg
   width="264.48074mm"
   height="214.77405mm"
   viewBox="-12 -12 291.045 236.3458"
   version="1.1"
   id="svg1"
   xml:space="preserve"
   inkscape:export-filename="section3.svg"
   inkscape:export-xdpi="96"
   inkscape:export-ydpi="96"
   inkscape:version="1.3.2 (091e20e, 2023-11-25, custom)"
   sodipodi:docname="icons_manual.svg"
   xmlns:inkscape="http://www.inkscape.org/namespaces/inkscape"
   xmlns:sodipodi="http://sodipodi.sourceforge.net/DTD/sodipodi-0.dtd"
   xmlns:xlink="http://www.w3.org/1999/xlink"
   xmlns="http://www.w3.org/2000/svg"
   xmlns:svg="http://www.w3.org/2000/svg"><sodipodi:namedview
     id="namedview1"
     pagecolor="#ffffff"
     bordercolor="#000000"
     borderopacity="0.25"
     inkscape:showpageshadow="2"
     inkscape:pageopacity="0.0"
     inkscape:pagecheckerboard="0"
     inkscape:deskcolor="#d1d1d1"
     inkscape:document-units="mm"
     showguides="true"
     inkscape:zoom="0.36945288"
     inkscape:cx="174.58248"
     inkscape:cy="315.33115"
     inkscape:window-width="2560"
     inkscape:window-height="1369"
     inkscape:window-x="1912"
     inkscape:window-y="-8"
     inkscape:window-maximized="1"
     inkscape:current-layer="layer1"><sodipodi:guide
       position="-732.98552,5.4530677"
       orientation="0,-1"
       id="guide95"
       inkscape:locked="false" /><sodipodi:guide
       position="-638.41607,230.84362"
       orientation="0,-1"
       id="guide96"
       inkscape:locked="false" /><sodipodi:guide
       position="-1191.3798,30.508716"
       orientation="0,-1"
       id="guide151"
       inkscape:locked="false" /></sodipodi:namedview><defs
     id="defs1"><linearGradient
       id="swatch150"
       inkscape:swatch="solid"><stop
         style="stop-color:#0b619a;stop-opacity:1;"
         offset="0"
         id="stop150" /></linearGradient><linearGradient
       id="swatch149"
       inkscape:swatch="solid"><stop
         style="stop-color:#64747f;stop-opacity:1;"
         offset="0"
         id="stop149" /></linearGradient><linearGradient
       id="swatch148"
       inkscape:swatch="solid"><stop
         style="stop-color:#e07d00;stop-opacity:1;"
         offset="0"
         id="stop148" /></linearGradient><linearGradient
       id="swatch147"
       inkscape:swatch="solid"><stop
         style="stop-color:#ffffff;stop-opacity:1;"
         offset="0"
         id="stop147" /></linearGradient><linearGradient
       id="swatch145"
       inkscape:swatch="solid"><stop
         style="stop-color:#0b619a;stop-opacity:1;"
         offset="0"
         id="stop145" /></linearGradient><linearGradient
       id="swatch144"
       inkscape:swatch="solid"><stop
         style="stop-color:#ffffff;stop-opacity:1;"
         offset="0"
         id="stop144" /></linearGradient><linearGradient
       id="swatch143"
       inkscape:swatch="solid"><stop
         style="stop-color:#0b619a;stop-opacity:1;"
         offset="0"
         id="stop143" /></linearGradient><linearGradient
       id="swatch142"
       inkscape:swatch="solid"><stop
         style="stop-color:#92e3de;stop-opacity:1;"
         offset="0"
         id="stop142" /></linearGradient><linearGradient
       id="swatch141"
       inkscape:swatch="solid"><stop
         style="stop-color:#17587f;stop-opacity:1;"
         offset="0"
         id="stop141" /></linearGradient><linearGradient
       id="swatch140"
       inkscape:swatch="solid"><stop
         style="stop-color:#e07d00;stop-opacity:1;"
         offset="0"
         id="stop140" /></linearGradient><linearGradient
       id="swatch138"
       inkscape:swatch="solid"><stop
         style="stop-color:#e07d00;stop-opacity:1;"
         offset="0"
         id="stop138" /></linearGradient><linearGradient
       id="swatch133"
       inkscape:swatch="solid"><stop
         style="stop-color:#17587f;stop-opacity:1;"
         offset="0"
         id="stop133" /></linearGradient><linearGradient
       id="swatch132"
       inkscape:swatch="solid"><stop
         style="stop-color:#57a0ab;stop-opacity:1;"
         offset="0"
         id="stop132" /></linearGradient><linearGradient
       id="swatch131"
       inkscape:swatch="solid"><stop
         style="stop-color:#09688b;stop-opacity:1;"
         offset="0"
         id="stop131" /></linearGradient><linearGradient
       id="swatch130"
       inkscape:swatch="solid"><stop
         style="stop-color:#09688b;stop-opacity:1;"
         offset="0"
         id="stop130" /></linearGradient><linearGradient
       id="swatch129"
       inkscape:swatch="solid"><stop
         style="stop-color:#4be6ca;stop-opacity:1;"
         offset="0"
         id="stop129" /></linearGradient><linearGradient
       id="swatch128"
       inkscape:swatch="solid"><stop
         style="stop-color:#4be6ca;stop-opacity:1;"
         offset="0"
         id="stop128" /></linearGradient><linearGradient
       id="swatch119"
       inkscape:swatch="solid"><stop
         style="stop-color:#006e98;stop-opacity:1;"
         offset="0"
         id="stop119" /></linearGradient><linearGradient
       id="swatch118"
       inkscape:swatch="solid"><stop
         style="stop-color:#58cdc1;stop-opacity:1;"
         offset="0"
         id="stop118" /></linearGradient><linearGradient
       id="swatch116"
       inkscape:swatch="solid"><stop
         style="stop-color:#5d7b8f;stop-opacity:1;"
         offset="0"
         id="stop116" /></linearGradient><linearGradient
       id="swatch115"
       inkscape:swatch="solid"><stop
         style="stop-color:#58b8c5;stop-opacity:1;"
         offset="0"
         id="stop115" /></linearGradient><linearGradient
       id="swatch114"
       inkscape:swatch="solid"><stop
         style="stop-color:#0a5789;stop-opacity:1;"
         offset="0"
         id="stop114" /></linearGradient><inkscape:path-effect
       effect="bspline"
       id="path-effect113"
       is_visible="true"
       lpeversion="1.3"
       weight="33.333333"
       steps="2"
       helper_size="0"
       apply_no_weight="true"
       apply_with_weight="true"
       only_selected="false"
       uniform="false" /><linearGradient
       id="swatch100"
       inkscape:swatch="solid"><stop
         style="stop-color:#000000;stop-opacity:1;"
         offset="0"
         id="stop100" /></linearGradient><linearGradient
       id="swatch98"
       inkscape:swatch="solid"><stop
         style="stop-color:#076690;stop-opacity:1;"
         offset="0"
         id="stop98" /></linearGradient><linearGradient
       id="swatch97"
       inkscape:swatch="solid"><stop
         style="stop-color:#d9dee1;stop-opacity:1;"
         offset="0"
         id="stop97" /></linearGradient><linearGradient
       id="swatch94"
       inkscape:swatch="solid"><stop
         style="stop-color:#e07d00;stop-opacity:1;"
         offset="0"
         id="stop94" /></linearGradient><linearGradient
       id="swatch93"
       inkscape:swatch="solid"><stop
         style="stop-color:#006694;stop-opacity:1;"
         offset="0"
         id="stop93" /></linearGradient><linearGradient
       id="swatch89"
       inkscape:swatch="solid"><stop
         style="stop-color:#8a8a8a;stop-opacity:1;"
         offset="0"
         id="stop89" /></linearGradient><linearGradient
       id="swatch88"
       inkscape:swatch="solid"><stop
         style="stop-color:#474747;stop-opacity:1;"
         offset="0"
         id="stop88" /></linearGradient><linearGradient
       id="swatch87"
       inkscape:swatch="solid"
       inkscape:label="blue"><stop
         style="stop-color:#00568f;stop-opacity:1;"
         offset="0"
         id="stop87" /></linearGradient><linearGradient
       id="swatch82"
       inkscape:swatch="solid"><stop
         style="stop-color:#000000;stop-opacity:1;"
         offset="0"
         id="stop82" /></linearGradient><linearGradient
       id="swatch78"
       inkscape:swatch="solid"><stop
         style="stop-color:#989898;stop-opacity:1;"
         offset="0"
         id="stop78" /></linearGradient><linearGradient
       id="swatch77"
       inkscape:swatch="solid"
       inkscape:label="light gray"><stop
         style="stop-color:#989898;stop-opacity:1;"
         offset="0"
         id="stop77" /></linearGradient><linearGradient
       inkscape:collect="always"
       xlink:href="#swatch87"
       id="linearGradient103"
       gradientUnits="userSpaceOnUse"
       gradientTransform="translate(999.91335,76.481789)"
       x1="48.767181"
       y1="679.44983"
       x2="110.0654"
       y2="679.44983" /><linearGradient
       inkscape:collect="always"
       xlink:href="#swatch87"
       id="linearGradient104"
       gradientUnits="userSpaceOnUse"
       gradientTransform="translate(1102.0305,76.481825)"
       x1="48.767181"
       y1="679.44983"
       x2="110.0654"
       y2="679.44983" /><linearGradient
       inkscape:collect="always"
       xlink:href="#swatch87"
       id="linearGradient105"
       gradientUnits="userSpaceOnUse"
       gradientTransform="translate(897.79613,76.481815)"
       x1="48.767181"
       y1="679.44983"
       x2="110.0654"
       y2="679.44983" /><linearGradient
       inkscape:collect="always"
       xlink:href="#swatch87"
       id="linearGradient106"
       gradientUnits="userSpaceOnUse"
       gradientTransform="translate(1101.8861,2.0845506)"
       x1="48.767181"
       y1="679.44983"
       x2="110.0654"
       y2="679.44983" /><inkscape:path-effect
       effect="bspline"
       id="path-effect68-1-3-4-3-9-9"
       is_visible="true"
       lpeversion="1.3"
       weight="33.333333"
       steps="2"
       helper_size="0"
       apply_no_weight="true"
       apply_with_weight="true"
       only_selected="false"
       uniform="false" /><linearGradient
       inkscape:collect="always"
       xlink:href="#swatch77"
       id="linearGradient110"
       gradientUnits="userSpaceOnUse"
       x1="-115.14129"
       y1="728.5849"
       x2="-82.503937"
       y2="728.5849" /><inkscape:path-effect
       effect="bspline"
       id="path-effect68-1-3-4-3-9-27"
       is_visible="true"
       lpeversion="1.3"
       weight="33.333333"
       steps="2"
       helper_size="0"
       apply_no_weight="true"
       apply_with_weight="true"
       only_selected="false"
       uniform="false" /><linearGradient
       inkscape:collect="always"
       xlink:href="#swatch77"
       id="linearGradient111"
       gradientUnits="userSpaceOnUse"
       x1="-115.14129"
       y1="728.5849"
       x2="-82.503937"
       y2="728.5849" /><inkscape:path-effect
       effect="bspline"
       id="path-effect68-1-3-4-3-9-91"
       is_visible="true"
       lpeversion="1.3"
       weight="33.333333"
       steps="2"
       helper_size="0"
       apply_no_weight="true"
       apply_with_weight="true"
       only_selected="false"
       uniform="false" /><linearGradient
       inkscape:collect="always"
       xlink:href="#swatch77"
       id="linearGradient112"
       gradientUnits="userSpaceOnUse"
       x1="-115.14129"
       y1="728.5849"
       x2="-82.503937"
       y2="728.5849" /><linearGradient
       inkscape:collect="always"
       xlink:href="#swatch77"
       id="linearGradient113"
       gradientUnits="userSpaceOnUse"
       gradientTransform="translate(1142.5597,-18.30498)"
       x1="-158.19759"
       y1="813.30524"
       x2="85.602127"
       y2="813.30524" /><linearGradient
       inkscape:collect="always"
       xlink:href="#swatch87"
       id="linearGradient114"
       x1="-656.57239"
       y1="1101.9423"
       x2="-500.66006"
       y2="1101.9423"
       gradientUnits="userSpaceOnUse" /><linearGradient
       inkscape:collect="always"
       xlink:href="#swatch94"
       id="linearGradient115"
       x1="-644.53931"
       y1="1172.1633"
       x2="-582.9317"
       y2="1172.1633"
       gradientUnits="userSpaceOnUse" /><linearGradient
       inkscape:collect="always"
       xlink:href="#swatch77"
       id="linearGradient116"
       x1="-667.89606"
       y1="1171.5164"
       x2="-565.89246"
       y2="1171.5164"
       gradientUnits="userSpaceOnUse" /></defs><g
     inkscape:label="Layer 1"
     inkscape:groupmode="layer"
     id="layer1"
     transform="translate(-972.73932,-582.13177)"><rect
       style="fill:#ffffff;fill-opacity:1;stroke:#ffffff;stroke-width:11.0044;stroke-linecap:square;stroke-linejoin:miter;stroke-miterlimit:27.4;stroke-dasharray:none;stroke-opacity:1"
       id="rect92-88"
       width="280.04071"
       height="225.34148"
       x="966.24152"
       y="575.63397"
       rx="0"
       ry="0" /><ellipse
       style="opacity:0.629091;fill:url(#linearGradient113);fill-opacity:1;stroke:none;stroke-width:8.80352;stroke-linecap:round;stroke-linejoin:round;stroke-miterlimit:27.4;stroke-dasharray:none;stroke-opacity:1"
       id="path76-8-2-5"
       cx="1106.2618"
       cy="795.00055"
       rx="121.89986"
       ry="5.2939367" /><g
       id="g152"
       transform="matrix(0.99804832,0,0,0.99804832,28.273522,-2.6051138)"><path
         style="fill:none;fill-opacity:1;stroke:url(#linearGradient110);stroke-width:8.80353;stroke-linecap:round;stroke-linejoin:round;stroke-dasharray:none;stroke-opacity:1"
         d="m -66.915851,728.529 c -16.070113,0.0373 -32.140226,0.0746 -48.210339,0.11183"
         id="path68-1-4-5-5-9-8"
         inkscape:path-effect="#path-effect68-1-3-4-3-9-9"
         inkscape:original-d="m -66.915851,728.529 c -16.070113,0.0373 -32.140226,0.0746 -48.210339,0.11183"
         transform="translate(1120.4257,26.650128)"
         sodipodi:nodetypes="cc" /><path
         style="fill:none;fill-opacity:1;stroke:url(#linearGradient111);stroke-width:8.80353;stroke-linecap:round;stroke-linejoin:round;stroke-dasharray:none;stroke-opacity:1"
         d="m -62.457799,728.529 c -23.593075,0.0373 -47.186151,0.0746 -70.779231,0.11183"
         id="path68-1-4-5-5-9-9"
         inkscape:path-effect="#path-effect68-1-3-4-3-9-27"
         inkscape:original-d="m -62.457799,728.529 c -23.593075,0.0373 -47.186151,0.0746 -70.779231,0.11183"
         transform="translate(1223.6992,26.650128)"
         sodipodi:nodetypes="cc" /><path
         style="fill:none;fill-opacity:1;stroke:url(#linearGradient112);stroke-width:8.80353;stroke-linecap:round;stroke-linejoin:round;stroke-dasharray:none;stroke-opacity:1"
         d="m -50.755413,705.12423 c -8.883736,0.0295 -17.767473,0.059 -26.65121,0.0885 0.05796,23.04103 0.115915,46.08207 0.173873,69.1231"
         id="path68-1-4-5-5-9-36"
         inkscape:path-effect="#path-effect68-1-3-4-3-9-91"
         inkscape:original-d="m -50.755413,705.12423 c -8.883736,0.0295 -26.65121,0.0885 -26.65121,0.0885 0,0 0.115915,46.08207 0.173873,69.1231"
         transform="translate(1207.4819,-24.382596)"
         sodipodi:nodetypes="ccc" /><rect
         style="fill:url(#linearGradient103);fill-opacity:1;stroke-width:0.271748"
         id="rect68-6-6-8-0"
         width="66.592194"
         height="49.038479"
         x="1046.1729"
         y="730.71545"
         ry="6.4084496"
         rx="6.4084496" /><rect
         style="fill:url(#linearGradient104);fill-opacity:1;stroke-width:0.271748"
         id="rect68-6-6-8-0-7"
         width="66.592194"
         height="49.038479"
         x="1148.29"
         y="730.71545"
         ry="6.4084496"
         rx="6.4084496" /><rect
         style="fill:url(#linearGradient105);fill-opacity:1;stroke-width:0.271748"
         id="rect68-6-6-8-0-9"
         width="66.592194"
         height="49.038479"
         x="944.0556"
         y="730.71545"
         ry="6.4084496"
         rx="6.4084496" /><rect
         style="fill:url(#linearGradient106);fill-opacity:1;stroke-width:0.271748"
         id="rect68-6-6-8-0-6"
         width="66.592194"
         height="49.038479"
         x="1148.1456"
         y="656.31818"
         ry="6.4084496"
         rx="6.4084496" /><g
         id="g56"
         transform="matrix(1.0657465,-0.19785382,0.19794015,1.0652817,1476.4187,-695.23539)"
         style="stroke:#ffffff;stroke-width:17.7789;stroke-dasharray:none;stroke-opacity:1;paint-order:stroke fill markers"><path
           style="opacity:1;fill:#ffffff;fill-opacity:1;stroke:none;stroke-width:17.7789;stroke-linecap:round;stroke-linejoin:bevel;stroke-dasharray:none;stroke-opacity:1;paint-order:stroke fill markers"
           d="m -717.66881,1204.9068 c 2.25112,0.5318 4.50225,1.0635 6.21444,1.4647 1.71219,0.4011 2.88541,0.6717 3.26382,1.2283 0.37842,0.5567 -0.038,1.3995 -0.85177,2.6273 -0.81373,1.2279 -2.02446,2.8404 -0.72026,6.1524 1.3042,3.3119 5.12341,8.3229 7.76781,10.9413 2.64439,2.6183 4.11387,2.844 5.65539,2.841 1.54151,-0 3.15495,-0.2346 4.66958,-0.5378 1.51463,-0.3032 2.9303,-0.678 3.97017,-0.6501 1.03987,0.028 1.70381,0.4581 2.58455,1.0505 0.88075,0.5924 1.97818,1.3467 3.10314,1.9335 1.12496,0.5868 2.27739,1.006 3.5685,1.372 1.29112,0.366 2.72079,0.6787 3.3139,1.6591 0.5931,0.9803 0.34958,2.6281 0.11449,3.7371 -0.23509,1.1091 -0.46167,1.6791 0.0957,3.6434 0.55733,1.9643 1.89847,5.3223 2.9652,7.3094 1.06673,1.9871 1.85878,2.6028 2.03768,3.3904 0.1789,0.7876 -0.25537,1.747 -0.69282,2.658 -0.43745,0.911 -0.87803,1.7735 0.40562,3.5865 1.28364,1.813 4.29124,4.5762 9.73253,2.6942 5.44129,-1.8819 13.31572,-8.409 16.88548,-11.7667 3.56977,-3.3577 2.83461,-3.5457 2.00389,-3.7848 -0.83071,-0.2391 -1.75687,-0.5292 -2.01239,-1.0608 -0.25552,-0.5316 0.15961,-1.3046 1.03002,-2.1762 0.87042,-0.8716 2.19582,-1.8415 3.60767,-2.3667 1.41186,-0.5251 2.90993,-0.6053 4.16126,-0.6242 1.25133,-0.019 2.25585,0.023 4.07066,-0.771 1.81481,-0.7944 4.43981,-2.4256 5.65485,-6.0225 1.21505,-3.5968 1.02011,-9.159 -7.55996,-16.1135 -8.58008,-6.9545 -25.54457,-15.3007 -41.1761,-20.4002 -15.63153,-5.0995 -29.92913,-6.9521 -44.22704,-8.8047"
           id="path113"
           inkscape:path-effect="#path-effect113"
           inkscape:original-d="m -717.66881,1204.9068 c 2.25111,0.5318 4.50224,1.0636 6.75335,1.5953 1.17327,0.2706 2.34649,0.5411 3.5198,0.8116 -0.41649,0.8428 -0.83292,1.6856 -1.24941,2.5284 -1.21094,1.6129 -2.42173,3.2254 -3.63262,4.8382 3.81932,5.0111 7.63852,10.0221 11.45775,15.0331 1.46956,0.2257 2.93904,0.4514 4.40855,0.6771 1.61352,-0.2317 3.22696,-0.4633 4.84049,-0.695 1.41574,-0.3747 2.83139,-0.7495 4.24713,-1.1242 0.664,0.4304 1.32796,0.8607 1.99195,1.2911 1.09748,0.7544 2.19494,1.5087 3.29241,2.2631 1.15243,0.4192 2.30486,0.8384 3.45732,1.2576 1.42976,0.3128 2.85943,0.6256 4.28918,0.9383 -0.24353,1.6479 -0.48704,3.2957 -0.73058,4.9436 -0.22664,0.5702 -0.45324,1.1402 -0.67988,1.7104 1.34133,3.3584 2.68246,6.7164 4.02379,10.0749 0.79213,0.6157 1.58416,1.2314 2.37629,1.8471 -0.43432,0.9595 -0.8686,1.9189 -1.30291,2.8784 -0.44059,0.8625 -0.88115,1.725 -1.32174,2.5875 3.00784,2.7635 6.01545,5.5267 9.0233,8.2901 7.87476,-6.5273 15.74915,-13.0544 23.62394,-19.5817 -0.73522,-0.1881 -1.4704,-0.3761 -2.20563,-0.5642 -0.92619,-0.2901 -1.85235,-0.5802 -2.77858,-0.8703 0.41519,-0.7731 0.83031,-1.5461 1.24551,-2.3192 1.32564,-0.9701 2.65106,-1.94 3.97664,-2.9101 1.49812,-0.08 2.99618,-0.1604 4.49431,-0.2406 1.00455,0.042 2.00904,0.085 3.01359,0.1271 2.62509,-1.6312 5.25008,-3.2624 7.87511,-4.8936 -0.19494,-5.5625 -0.38989,-11.1247 -0.58482,-16.6871 -16.9652,-8.3466 -33.9297,-16.6928 -50.89455,-25.0392 -14.2982,-1.8527 -28.59581,-3.7052 -42.89372,-5.5578"
           sodipodi:nodetypes="ccccccccccccccccccccccccccccccc" /><g
           id="g109"
           transform="rotate(18.654597,-751.59208,991.13106)"
           style="stroke:#ffffff;stroke-width:17.7789;stroke-linejoin:bevel;stroke-dasharray:none;stroke-opacity:1;paint-order:stroke fill markers"><path
             d="m -633.9526,1195.7963 c -0.52408,-0.5241 -0.95288,-1.215 -0.95288,-1.5352 0,-0.3203 2.17154,-6.4839 4.82565,-13.6968 2.6541,-7.2129 4.77981,-13.1602 4.7238,-13.2162 -0.056,-0.056 -1.48087,0.684 -3.16635,1.6445 -1.68548,0.9606 -3.36197,1.7464 -3.72554,1.7464 -0.36358,0 -0.93557,-0.2745 -1.27109,-0.61 -0.33788,-0.3379 -0.61005,-1.2601 -0.61005,-2.0672 0,-0.8014 0.42605,-2.7097 0.94677,-4.2407 0.52072,-1.531 1.52521,-3.8695 2.23221,-5.1968 0.707,-1.3272 2.23705,-3.4413 3.40011,-4.6979 1.16307,-1.2566 3.14149,-2.9821 4.3965,-3.8343 1.25501,-0.8523 3.19166,-1.952 4.30367,-2.4437 l 2.02183,-0.8942 12.0217,8.3138 12.02169,8.3139 0.12586,0.9924 c 0.0692,0.5458 -0.15244,2.4196 -0.4926,4.1638 -0.40665,2.0853 -1.27421,4.501 -2.53313,7.0536 -1.25117,2.5368 -2.83857,4.9583 -4.5808,6.9878 -1.46637,1.7081 -3.33576,3.6152 -4.15419,4.2379 -0.82254,0.6259 -1.97333,1.1323 -2.57308,1.1323 -0.59677,0 -1.35638,-0.2252 -1.68803,-0.5004 -0.34605,-0.2872 -0.603,-1.1116 -0.603,-1.9345 0,-0.7887 0.18443,-2.4706 0.40985,-3.7375 0.22542,-1.2669 0.49924,-2.6092 0.60848,-2.9829 0.10924,-0.3737 0.0209,-0.6794 -0.1962,-0.6794 -0.21715,0 -2.89302,2.0604 -5.94638,4.5786 -3.05335,2.5182 -8.1371,6.7109 -11.29721,9.317 -3.16012,2.6062 -6.0942,4.7386 -6.52018,4.7386 -0.42599,0 -1.20332,-0.4288 -1.72741,-0.9529 z"
             id="path58"
             style="fill:url(#linearGradient115);stroke:#ffffff;stroke-width:17.7789;stroke-linejoin:bevel;stroke-dasharray:none;stroke-opacity:1;paint-order:stroke fill markers" /><path
             d="m -589.39338,1203.7228 c -0.0363,-0.015 -0.0731,-0.032 -0.11025,-0.051 -0.45804,-0.2389 -0.96816,-0.8264 -1.17454,-1.3692 -0.28566,-0.7513 -0.28057,-1.3416 0.0171,-1.9949 0.23254,-0.5104 2.69779,-3.8772 5.47833,-7.4818 3.40641,-4.416 5.36551,-6.6316 6.00579,-6.7923 0.52265,-0.1312 1.38479,-0.1295 1.91588,0 0.53109,0.1333 1.25883,0.6899 1.6172,1.2368 0.48171,0.7352 0.5589,1.2465 0.29607,1.9609 -0.19553,0.5316 -2.5392,3.8295 -5.20815,7.3288 -3.11072,4.0785 -5.29176,6.5775 -6.07594,6.9618 -0.67282,0.3297 -1.3716,0.5884 -1.55285,0.5749 -0.18125,-0.014 -0.72514,-0.1836 -1.20866,-0.3778 z m -67.69385,-46.9662 c -0.34982,-0.2043 -0.74514,-0.8061 -0.87848,-1.3374 -0.13334,-0.5313 -0.0218,-1.4687 0.24783,-2.0833 0.26965,-0.6145 2.67395,-3.9251 5.3429,-7.357 2.66896,-3.4319 5.25393,-6.4273 5.74438,-6.6565 0.49046,-0.2292 1.29319,-0.4167 1.78384,-0.4167 0.49065,0 1.18121,0.3195 1.53458,0.71 0.35336,0.3904 0.64248,1.188 0.64248,1.7724 0,0.5844 -0.19833,1.4331 -0.44073,1.8861 -0.2424,0.4529 -2.6146,3.5872 -5.27154,6.965 -2.65694,3.3779 -5.1549,6.315 -5.55102,6.527 -0.39611,0.212 -1.12476,0.3801 -1.61921,0.3736 -0.49444,-0.01 -1.18521,-0.1789 -1.53503,-0.3832 z"
             id="path57"
             sodipodi:nodetypes="cssssscsssscccssssssssssscs"
             style="fill:url(#linearGradient116);stroke:#ffffff;stroke-width:17.7789;stroke-linejoin:bevel;stroke-dasharray:none;stroke-opacity:1;paint-order:stroke fill markers" /><path
             d="m -564.51653,1180.096 -1.23599,-0.7737 -2.9605,-9.2413 c -1.62828,-5.0828 -3.57621,-11.1202 -4.32874,-13.4165 l -1.36822,-4.1751 -2.2982,1.6518 c -1.26401,0.9084 -3.35683,2.3942 -4.65071,3.3016 -1.43306,1.005 -2.78505,1.6499 -3.45919,1.6499 -0.69319,0 -2.24311,-0.7662 -4.14837,-2.0507 -1.67294,-1.1278 -8.59168,-5.8714 -15.37498,-10.5413 -8.55113,-5.8869 -12.40011,-8.757 -12.55124,-9.3591 -0.11989,-0.4777 0.40033,-3.195 1.15604,-6.0385 0.75571,-2.8436 1.33761,-5.1897 1.29312,-5.2137 -0.0445,-0.024 -6.5446,0.1867 -14.4447,0.4682 -10.99828,0.3919 -14.6247,0.4056 -15.4773,0.058 -0.61242,-0.2494 -1.44157,-0.9915 -1.84255,-1.649 -0.40098,-0.6576 -0.72971,-1.7245 -0.73051,-2.3709 -8e-4,-0.6464 0.28882,-1.6073 0.6436,-2.1352 0.35477,-0.5279 1.89158,-2.2701 3.41513,-3.8714 1.52354,-1.6014 5.41992,-6.0561 8.65862,-9.8994 4.3733,-5.1897 6.51634,-7.4082 8.32826,-8.6217 1.34184,-0.8986 3.24026,-1.9717 4.21871,-2.3847 0.97846,-0.4129 3.98382,-1.468 6.67859,-2.3447 2.69477,-0.8767 7.5718,-2.2922 10.83785,-3.1454 3.26605,-0.8533 6.29524,-1.5523 6.73153,-1.5534 0.5907,0 1.32535,-0.9188 2.87713,-3.5929 1.14614,-1.975 3.38793,-5.5999 4.98177,-8.0553 1.59384,-2.4555 4.59489,-6.7355 6.669,-9.5112 2.07411,-2.7757 5.26014,-6.7064 7.08006,-8.7348 1.81993,-2.0284 5.2758,-5.4349 7.67972,-7.5701 2.40392,-2.1351 6.05543,-5.1923 8.11445,-6.7937 2.05903,-1.6013 5.74991,-4.2514 8.20197,-5.889 2.45206,-1.6376 6.8828,-4.3252 9.84609,-5.9725 2.96329,-1.6473 7.50536,-3.947 10.09349,-5.1104 2.58813,-1.1634 5.95935,-2.5374 7.49161,-3.0534 1.65422,-0.557 3.68602,-0.9381 5.0017,-0.9381 1.21868,0 2.93064,0.2142 3.80435,0.476 0.87371,0.2617 2.22015,1.1075 2.99208,1.8794 0.89479,0.8948 1.56655,2.051 1.85332,3.1899 0.24739,0.9825 0.44794,4.3731 0.44565,7.5347 -0.002,3.1615 -0.2635,8.194 -0.58049,11.1832 -0.31698,2.9892 -0.93238,7.444 -1.36755,9.8994 -0.43517,2.4554 -1.38674,6.7355 -2.11459,9.5112 -0.72786,2.7757 -2.0216,7.0667 -2.875,9.5356 -0.8534,2.4688 -2.36318,6.3995 -3.35508,8.7347 -0.99189,2.3353 -2.78108,6.0802 -3.97597,8.3221 -1.19489,2.2419 -3.11953,5.6485 -4.27699,7.5701 -1.15745,1.9217 -3.51252,5.5029 -5.23349,7.9584 -1.72097,2.4554 -4.76033,6.5935 -6.75414,9.1957 l -3.62512,4.7314 -3.6e-4,2.0623 c -2e-4,1.1343 0.27898,5.8183 0.6204,10.4089 0.34142,4.5906 0.5551,10.2682 0.47486,12.6169 l -0.14591,4.2703 -0.99678,2.148 c -0.54824,1.1814 -3.93044,7.0337 -7.51602,13.0051 -3.58557,5.9714 -6.98412,11.3428 -7.55233,11.9364 -0.58872,0.6151 -1.60928,1.1658 -2.3726,1.2802 -0.93638,0.1405 -1.71146,-0.032 -2.57548,-0.5727 z m 23.22293,-102.9294 c 0.93166,-0.4679 2.51221,-1.712 3.51233,-2.7647 1.15374,-1.2144 2.06558,-2.6528 2.49462,-3.9352 0.37192,-1.1117 0.66614,-2.8198 0.65382,-3.7958 -0.0123,-0.976 -0.32464,-2.3735 -0.69407,-3.1057 -0.36943,-0.7321 -1.21989,-1.9142 -1.88991,-2.6269 -0.67002,-0.7126 -1.917,-1.6639 -2.77107,-2.114 -1.03929,-0.5477 -2.25898,-0.8167 -3.688,-0.8136 -1.4527,0 -2.75558,0.3037 -4.07622,0.9401 -1.06758,0.5145 -2.69451,1.6885 -3.61541,2.6088 -0.9209,0.9204 -2.09838,2.5842 -2.61663,3.6973 -0.60449,1.2984 -0.94364,2.7297 -0.94607,3.9928 -0.002,1.083 0.27114,2.7759 0.60716,3.762 0.38395,1.1269 1.23647,2.3697 2.29442,3.3449 1.09888,1.0129 2.20108,1.6385 3.1741,1.8018 0.81985,0.1375 1.65744,0.2913 1.86132,0.3417 0.20387,0.051 1.18855,-0.037 2.18817,-0.1955 0.99963,-0.158 2.57978,-0.6701 3.51144,-1.138 z"
             id="path56"
             sodipodi:nodetypes="ccsscssssssssscssssssssscsssssssssssssscssssssssscssscssssccssssssscsssssssccs"
             style="fill:url(#linearGradient114);stroke:#ffffff;stroke-width:17.7789;stroke-linecap:round;stroke-linejoin:bevel;stroke-dasharray:none;stroke-opacity:1;paint-order:stroke fill markers" /></g></g></g></g></svg>
