<?xml version="1.0" encoding="UTF-8" standalone="no"?>
<!-- Created with Inkscape (http://www.inkscape.org/) -->

<svg
   width="264.48056mm"
   height="214.77388mm"
   viewBox="-12 -12 291.045 236.34578"
   version="1.1"
   id="svg1"
   xml:space="preserve"
   inkscape:export-filename="section1.svg"
   inkscape:export-xdpi="96"
   inkscape:export-ydpi="96"
   inkscape:version="1.3.2 (091e20e, 2023-11-25, custom)"
   sodipodi:docname="icons_manual.svg"
   xmlns:inkscape="http://www.inkscape.org/namespaces/inkscape"
   xmlns:sodipodi="http://sodipodi.sourceforge.net/DTD/sodipodi-0.dtd"
   xmlns:xlink="http://www.w3.org/1999/xlink"
   xmlns="http://www.w3.org/2000/svg"
   xmlns:svg="http://www.w3.org/2000/svg"><sodipodi:namedview
     id="namedview1"
     pagecolor="#ffffff"
     bordercolor="#000000"
     borderopacity="0.25"
     inkscape:showpageshadow="2"
     inkscape:pageopacity="0.0"
     inkscape:pagecheckerboard="0"
     inkscape:deskcolor="#d1d1d1"
     inkscape:document-units="mm"
     showguides="true"
     inkscape:zoom="0.36945288"
     inkscape:cx="174.58248"
     inkscape:cy="315.33115"
     inkscape:window-width="2560"
     inkscape:window-height="1369"
     inkscape:window-x="1912"
     inkscape:window-y="-8"
     inkscape:window-maximized="1"
     inkscape:current-layer="layer1"><sodipodi:guide
       position="23.287227,5.4528994"
       orientation="0,-1"
       id="guide95"
       inkscape:locked="false" /><sodipodi:guide
       position="117.85675,230.84361"
       orientation="0,-1"
       id="guide96"
       inkscape:locked="false" /><sodipodi:guide
       position="-435.10734,30.508565"
       orientation="0,-1"
       id="guide151"
       inkscape:locked="false" /></sodipodi:namedview><defs
     id="defs1"><linearGradient
       id="swatch150"
       inkscape:swatch="solid"><stop
         style="stop-color:#0b619a;stop-opacity:1;"
         offset="0"
         id="stop150" /></linearGradient><linearGradient
       id="swatch149"
       inkscape:swatch="solid"><stop
         style="stop-color:#64747f;stop-opacity:1;"
         offset="0"
         id="stop149" /></linearGradient><linearGradient
       id="swatch148"
       inkscape:swatch="solid"><stop
         style="stop-color:#e07d00;stop-opacity:1;"
         offset="0"
         id="stop148" /></linearGradient><linearGradient
       id="swatch147"
       inkscape:swatch="solid"><stop
         style="stop-color:#ffffff;stop-opacity:1;"
         offset="0"
         id="stop147" /></linearGradient><linearGradient
       id="swatch145"
       inkscape:swatch="solid"><stop
         style="stop-color:#0b619a;stop-opacity:1;"
         offset="0"
         id="stop145" /></linearGradient><linearGradient
       id="swatch144"
       inkscape:swatch="solid"><stop
         style="stop-color:#ffffff;stop-opacity:1;"
         offset="0"
         id="stop144" /></linearGradient><linearGradient
       id="swatch143"
       inkscape:swatch="solid"><stop
         style="stop-color:#0b619a;stop-opacity:1;"
         offset="0"
         id="stop143" /></linearGradient><linearGradient
       id="swatch142"
       inkscape:swatch="solid"><stop
         style="stop-color:#92e3de;stop-opacity:1;"
         offset="0"
         id="stop142" /></linearGradient><linearGradient
       id="swatch141"
       inkscape:swatch="solid"><stop
         style="stop-color:#17587f;stop-opacity:1;"
         offset="0"
         id="stop141" /></linearGradient><linearGradient
       id="swatch140"
       inkscape:swatch="solid"><stop
         style="stop-color:#e07d00;stop-opacity:1;"
         offset="0"
         id="stop140" /></linearGradient><linearGradient
       id="swatch138"
       inkscape:swatch="solid"><stop
         style="stop-color:#e07d00;stop-opacity:1;"
         offset="0"
         id="stop138" /></linearGradient><linearGradient
       id="swatch133"
       inkscape:swatch="solid"><stop
         style="stop-color:#17587f;stop-opacity:1;"
         offset="0"
         id="stop133" /></linearGradient><linearGradient
       id="swatch132"
       inkscape:swatch="solid"><stop
         style="stop-color:#57a0ab;stop-opacity:1;"
         offset="0"
         id="stop132" /></linearGradient><linearGradient
       id="swatch131"
       inkscape:swatch="solid"><stop
         style="stop-color:#09688b;stop-opacity:1;"
         offset="0"
         id="stop131" /></linearGradient><linearGradient
       id="swatch130"
       inkscape:swatch="solid"><stop
         style="stop-color:#09688b;stop-opacity:1;"
         offset="0"
         id="stop130" /></linearGradient><linearGradient
       id="swatch129"
       inkscape:swatch="solid"><stop
         style="stop-color:#4be6ca;stop-opacity:1;"
         offset="0"
         id="stop129" /></linearGradient><linearGradient
       id="swatch128"
       inkscape:swatch="solid"><stop
         style="stop-color:#4be6ca;stop-opacity:1;"
         offset="0"
         id="stop128" /></linearGradient><linearGradient
       id="swatch119"
       inkscape:swatch="solid"><stop
         style="stop-color:#006e98;stop-opacity:1;"
         offset="0"
         id="stop119" /></linearGradient><linearGradient
       id="swatch118"
       inkscape:swatch="solid"><stop
         style="stop-color:#58cdc1;stop-opacity:1;"
         offset="0"
         id="stop118" /></linearGradient><linearGradient
       id="swatch116"
       inkscape:swatch="solid"><stop
         style="stop-color:#5d7b8f;stop-opacity:1;"
         offset="0"
         id="stop116" /></linearGradient><linearGradient
       id="swatch115"
       inkscape:swatch="solid"><stop
         style="stop-color:#58b8c5;stop-opacity:1;"
         offset="0"
         id="stop115" /></linearGradient><linearGradient
       id="swatch114"
       inkscape:swatch="solid"><stop
         style="stop-color:#0a5789;stop-opacity:1;"
         offset="0"
         id="stop114" /></linearGradient><linearGradient
       id="swatch100"
       inkscape:swatch="solid"><stop
         style="stop-color:#000000;stop-opacity:1;"
         offset="0"
         id="stop100" /></linearGradient><linearGradient
       id="swatch98"
       inkscape:swatch="solid"><stop
         style="stop-color:#076690;stop-opacity:1;"
         offset="0"
         id="stop98" /></linearGradient><linearGradient
       id="swatch97"
       inkscape:swatch="solid"><stop
         style="stop-color:#d9dee1;stop-opacity:1;"
         offset="0"
         id="stop97" /></linearGradient><linearGradient
       id="swatch94"
       inkscape:swatch="solid"><stop
         style="stop-color:#e07d00;stop-opacity:1;"
         offset="0"
         id="stop94" /></linearGradient><linearGradient
       id="swatch93"
       inkscape:swatch="solid"><stop
         style="stop-color:#006694;stop-opacity:1;"
         offset="0"
         id="stop93" /></linearGradient><linearGradient
       id="swatch89"
       inkscape:swatch="solid"><stop
         style="stop-color:#8a8a8a;stop-opacity:1;"
         offset="0"
         id="stop89" /></linearGradient><linearGradient
       id="swatch88"
       inkscape:swatch="solid"><stop
         style="stop-color:#474747;stop-opacity:1;"
         offset="0"
         id="stop88" /></linearGradient><linearGradient
       id="swatch87"
       inkscape:swatch="solid"
       inkscape:label="blue"><stop
         style="stop-color:#00568f;stop-opacity:1;"
         offset="0"
         id="stop87" /></linearGradient><linearGradient
       id="swatch82"
       inkscape:swatch="solid"><stop
         style="stop-color:#000000;stop-opacity:1;"
         offset="0"
         id="stop82" /></linearGradient><linearGradient
       id="swatch78"
       inkscape:swatch="solid"><stop
         style="stop-color:#989898;stop-opacity:1;"
         offset="0"
         id="stop78" /></linearGradient><linearGradient
       id="swatch77"
       inkscape:swatch="solid"
       inkscape:label="light gray"><stop
         style="stop-color:#989898;stop-opacity:1;"
         offset="0"
         id="stop77" /></linearGradient><linearGradient
       inkscape:collect="always"
       xlink:href="#swatch87"
       id="linearGradient93"
       x1="-19.593403"
       y1="170.09776"
       x2="215.19305"
       y2="170.09776"
       gradientUnits="userSpaceOnUse" /><linearGradient
       inkscape:collect="always"
       xlink:href="#swatch94"
       id="linearGradient94"
       x1="-19.784121"
       y1="177.55605"
       x2="204.99158"
       y2="177.55605"
       gradientUnits="userSpaceOnUse" /><linearGradient
       inkscape:collect="always"
       xlink:href="#swatch77"
       id="linearGradient95"
       gradientUnits="userSpaceOnUse"
       x1="-158.19759"
       y1="813.30524"
       x2="85.602127"
       y2="813.30524"
       gradientTransform="translate(386.28672,-17.624019)" /></defs><g
     inkscape:label="Layer 1"
     inkscape:groupmode="layer"
     id="layer1"
     transform="translate(-216.46644,-582.13177)"><rect
       style="fill:#ffffff;fill-opacity:1;stroke:#ffffff;stroke-width:11.0044;stroke-linecap:square;stroke-linejoin:miter;stroke-miterlimit:27.4;stroke-dasharray:none;stroke-opacity:1"
       id="rect92-8"
       width="280.04071"
       height="225.34148"
       x="209.96864"
       y="575.63397"
       rx="0"
       ry="0" /><g
       id="g18"
       transform="matrix(1.2219079,0,0,1.2219079,230.60313,467.82716)"
       style="stroke-width:0.900575"><path
         style="fill:#d3d9dc;stroke-width:0.900575"
         d="m -14.425446,225.73481 c 0.536244,-0.0811 1.329994,-0.0789 1.763889,0.005 0.433894,0.0837 -0.0049,0.15008 -0.97499,0.14743 -0.970139,-0.003 -1.325143,-0.0712 -0.788899,-0.15225 z m 3.368586,0.0122 c 0.254662,-0.1019 0.558933,-0.0894 0.676158,0.0279 0.117225,0.11723 -0.09113,0.20061 -0.463021,0.18529 -0.410966,-0.0169 -0.494559,-0.10052 -0.213137,-0.21314 z m 2.4473961,0.007 c 0.2425347,-0.0979 0.6394097,-0.0979 0.8819444,0 0.2425347,0.0979 0.044097,0.17794 -0.4409722,0.17794 -0.4850694,0 -0.6835069,-0.0801 -0.4409722,-0.17794 z m 7.0776036,-0.007 c 0.2546614,-0.1019 0.55893223,-0.0894 0.67615734,0.0279 0.11722511,0.11723 -0.0911342,0.20061 -0.46302084,0.18529 -0.4109659,-0.0169 -0.4945589,-0.10052 -0.2131365,-0.21314 z m 2.08674941,-0.0136 c 0.62626259,-0.0779 1.73751249,-0.0792 2.46944429,-0.003 0.7319317,0.0764 0.2195351,0.14014 -1.1386593,0.1417 -1.3581943,0.002 -1.95704756,-0.0609 -1.33078499,-0.13885 z m 7.59259009,0.0114 c 0.3395486,-0.0887 0.8951735,-0.0887 1.2347221,0 0.3395486,0.0887 0.061736,0.16134 -0.6173611,0.16134 -0.6790971,0 -0.9569096,-0.0726 -0.617361,-0.16134 z m 14.2938168,-0.0125 c 0.634065,-0.0785 1.586565,-0.0769 2.116666,0.004 0.530102,0.0805 0.01132,0.14474 -1.152845,0.14276 -1.164167,-0.002 -1.597886,-0.0678 -0.963821,-0.14636 z m 3.543508,0.0147 c 0.254662,-0.1019 0.558932,-0.0894 0.676157,0.0279 0.117226,0.11723 -0.09113,0.20061 -0.46302,0.18529 -0.410966,-0.0169 -0.494559,-0.10052 -0.213137,-0.21314 z m 2.451509,-0.009 c 0.438825,-0.0844 1.073824,-0.0812 1.411111,0.007 0.337286,0.0883 -0.02175,0.15734 -0.797863,0.15343 -0.776111,-0.004 -1.052073,-0.0762 -0.613248,-0.16054 z m 2.465331,0.0159 c 0.242535,-0.0979 0.63941,-0.0979 0.881944,0 0.242535,0.0979 0.0441,0.17794 -0.440972,0.17794 -0.485069,0 -0.683507,-0.0801 -0.440972,-0.17794 z m 2.138715,-0.007 c 0.254662,-0.1019 0.558932,-0.0894 0.676157,0.0279 0.117226,0.11723 -0.09113,0.20061 -0.46302,0.18529 -0.410966,-0.0169 -0.494559,-0.10052 -0.213137,-0.21314 z m 6.35,0 c 0.254661,-0.1019 0.558932,-0.0894 0.676157,0.0279 0.117225,0.11723 -0.09113,0.20061 -0.463021,0.18529 -0.410966,-0.0169 -0.494559,-0.10052 -0.213136,-0.21314 z m 2.628635,-0.0122 c 0.536244,-0.0811 1.329994,-0.0789 1.763888,0.005 0.433895,0.0837 -0.0048,0.15008 -0.974989,0.14743 -0.970139,-0.003 -1.325143,-0.0712 -0.788899,-0.15225 z m 3.368586,0.0122 c 0.254662,-0.1019 0.558933,-0.0894 0.676158,0.0279 0.117225,0.11723 -0.09114,0.20061 -0.463021,0.18529 -0.410966,-0.0169 -0.494559,-0.10052 -0.213137,-0.21314 z m 1.745954,-0.009 c 0.438824,-0.0844 1.073824,-0.0812 1.411111,0.007 0.337286,0.0883 -0.02175,0.15734 -0.797863,0.15343 -0.776112,-0.004 -1.052073,-0.0762 -0.613248,-0.16054 z m 6.720712,0.009 c 0.254662,-0.1019 0.558933,-0.0894 0.676158,0.0279 0.117225,0.11723 -0.09113,0.20061 -0.463021,0.18529 -0.410966,-0.0169 -0.494559,-0.10052 -0.213137,-0.21314 z m 2.822222,0 c 0.254662,-0.1019 0.558933,-0.0894 0.676158,0.0279 0.117225,0.11723 -0.09114,0.20061 -0.463021,0.18529 -0.410966,-0.0169 -0.494559,-0.10052 -0.213137,-0.21314 z m 3.32934,-0.0197 c 1.11566,-0.07 2.941285,-0.07 4.056944,0 1.11566,0.07 0.202848,0.12729 -2.028472,0.12729 -2.231319,0 -3.144131,-0.0573 -2.028472,-0.12729 z m 7.761111,0.0175 c 0.339548,-0.0887 0.895173,-0.0887 1.234722,0 0.339549,0.0887 0.06174,0.16134 -0.617361,0.16134 -0.679097,0 -0.95691,-0.0726 -0.617361,-0.16134 z m 58.920601,-0.001 c 0.34324,-0.0894 0.81949,-0.0836 1.05833,0.0131 0.23884,0.0966 -0.042,0.16982 -0.62407,0.16263 -0.58209,-0.007 -0.7775,-0.0863 -0.43426,-0.1757 z m 3.01394,0.003 c 0.25466,-0.1019 0.55893,-0.0894 0.67616,0.0279 0.11722,0.11723 -0.0911,0.20061 -0.46302,0.18529 -0.41097,-0.0169 -0.49456,-0.10052 -0.21314,-0.21314 z m 4.58283,-0.0224 c 1.99911,-0.063 5.17411,-0.0627 7.05556,5.7e-4 1.88144,0.0633 0.24581,0.11485 -3.63474,0.11454 -3.88056,-3.1e-4 -5.41993,-0.0521 -3.42082,-0.11511 z m 63.83401,0.002 c 1.21267,-0.0689 3.19705,-0.0689 4.40972,0 1.21267,0.0689 0.22049,0.12525 -2.20486,0.12525 -2.42535,0 -3.41754,-0.0564 -2.20486,-0.12525 z m 7.0776,0.0202 c 0.25466,-0.1019 0.55893,-0.0894 0.67616,0.0279 0.11722,0.11723 -0.0911,0.20061 -0.46302,0.18529 -0.41097,-0.0169 -0.49456,-0.10052 -0.21314,-0.21314 z m 1.38906,0.007 c 0.24254,-0.0979 0.63941,-0.0979 0.88195,0 0.24253,0.0979 0.0441,0.17794 -0.44097,0.17794 -0.48507,0 -0.68351,-0.0801 -0.44098,-0.17794 z m 2.99861,-0.01 c 0.33955,-0.0887 0.89518,-0.0887 1.23473,0 0.33954,0.0887 0.0617,0.16134 -0.61736,0.16134 -0.6791,0 -0.95691,-0.0726 -0.61737,-0.16134 z M -1.9989541,158.07824 c 6.5e-6,-32.59666 0.041517,-45.87943 0.092246,-29.51727 0.050729,16.36217 0.050724,43.03217 -1.17e-5,59.26667 -0.050735,16.2345 -0.092241,2.84727 -0.092234,-29.7494 z m 157.3094341,51.94653 -0.67204,-0.79375 0.79375,0.67204 c 0.74593,0.63154 0.95435,0.91546 0.67204,0.91546 -0.0669,0 -0.42413,-0.35719 -0.79375,-0.79375 z M 44.687895,209.49562 c 16.944277,-0.0506 44.566775,-0.0506 61.383325,1e-5 16.81656,0.0507 2.95306,0.0921 -30.807774,0.0921 -33.760831,0 -47.519829,-0.0414 -30.575551,-0.0921 z m 118.214125,-4.23335 -0.85525,-0.97014 0.97014,0.85524 c 0.53358,0.47039 0.97014,0.90695 0.97014,0.97014 0,0.27668 -0.28568,0.0515 -1.08503,-0.85524 z m 34.06378,-66.93958 c 2e-5,-21.92514 0.0424,-30.8426 0.0941,-19.8166 0.0517,11.02601 0.0517,28.96476 -3e-5,39.86389 -0.0518,10.89913 -0.0941,1.87785 -0.0941,-20.04729 z M 1.0037298,91.446446 c 0,-0.07326 0.2778124,-0.351069 0.617361,-0.617361 0.5595252,-0.43881 0.572003,-0.426332 0.1331931,0.133193 -0.4608582,0.587639 -0.7505541,0.774516 -0.7505541,0.484168 z"
         id="path20"
         sodipodi:nodetypes="cccccsssssssssssssscccccssssccsccssssscccccsssssssssssssscccccssssscccccsssssssssssssssssssscssssssssssssssssssssssssssssssssscssssssssscssssssssssss" /><path
         style="fill:url(#linearGradient94);stroke-width:0.900575"
         d="m -0.47352706,251.85253 c 0.25466143,-0.10191 0.55893224,-0.0894 0.67615735,0.0279 0.1172251,0.11722 -0.0911342,0.2006 -0.4630208,0.18528 -0.41096596,-0.0169 -0.4945589,-0.10052 -0.21313655,-0.21313 z m 195.41682706,0.007 c 0.24253,-0.0979 0.63941,-0.0979 0.88194,0 0.24254,0.0979 0.0441,0.17793 -0.44097,0.17793 -0.48507,0 -0.68351,-0.0801 -0.44097,-0.17793 z m -30.69522,-16.19964 c -27.8743,-5.0397 -38.11332,-38.90508 -17.77766,-58.7993 9.46617,-9.26068 21.66443,-11.92719 35.77106,-7.81946 l 0.79194,0.2306 0.0918,-33.11358 0.0918,-33.11358 0.0864,33.17194 0.0864,33.17194 2.57143,1.27238 c 35.51817,17.57486 17.31853,72.05604 -21.71318,64.99906 z m 3.20174,-18.52192 c 1.08307,-0.37756 20.55402,-22.60417 22.27611,-25.42878 1.62264,-2.6615 0.61258,-5.87194 -2.10343,-6.68567 -2.44272,-0.73186 -2.87179,-0.35437 -12.95749,11.39971 l -9.33601,10.88037 -3.14179,-2.91702 c -6.58988,-6.11844 -8.85921,-6.75207 -11.02873,-3.07936 -1.56207,2.64437 -0.83852,3.91175 5.8826,10.30416 6.46209,6.14603 7.32202,6.60262 10.40874,5.52659 z m -187.232127,15.69941 c 0.01693,-0.41097 0.100521,-0.49456 0.213137,-0.21314 0.101907,0.25466 0.08937,0.55893 -0.02785,0.67616 -0.117225,0.11723 -0.200604,-0.0911 -0.185287,-0.46302 z m 19.3299271,-12.05324 c -0.4388099,-0.55953 -0.42633203,-0.572 0.1331931,-0.13319 0.58763884,0.46085 0.77451611,0.75055 0.48416796,0.75055 -0.07325621,0 -0.35106869,-0.27781 -0.61736106,-0.61736 z M 77.298632,186.23238 c 0.343241,-0.0894 0.819491,-0.0836 1.058333,0.0131 0.238842,0.0966 -0.04199,0.16982 -0.624075,0.16263 -0.582083,-0.007 -0.777499,-0.0863 -0.434258,-0.1757 z m -5.078796,-2.13678 c -0.438809,-0.55952 -0.426332,-0.572 0.133194,-0.13319 0.339548,0.26629 0.617361,0.54411 0.617361,0.61736 0,0.29035 -0.289696,0.10347 -0.750555,-0.48417 z m 50.844994,-23.15194 c 0,-0.0733 0.27781,-0.35107 0.61736,-0.61736 0.55953,-0.43881 0.57201,-0.42633 0.1332,0.13319 -0.46086,0.58764 -0.75056,0.77452 -0.75056,0.48417 z m -52.888811,-30.0587 c 0.01693,-0.41097 0.100521,-0.49456 0.213137,-0.21314 0.101907,0.25466 0.08937,0.55894 -0.02785,0.67616 -0.117225,0.11723 -0.200603,-0.0911 -0.185287,-0.46302 z m 6.763121,-6.38739 c 0.339549,-0.0887 0.895174,-0.0887 1.234722,0 0.339549,0.0887 0.06174,0.16133 -0.617361,0.16133 -0.679097,0 -0.956909,-0.0726 -0.617361,-0.16133 z"
         id="path19" /><path
         style="fill:url(#linearGradient93);stroke-width:0.900575"
         d="m -1.8893386,251.70265 c -10.3386624,-1.34572 -17.5009864,-9.66333 -17.6855844,-20.53828 -0.05758,-3.39221 -0.03759,-3.48501 0.930965,-4.32153 l 0.989811,-0.85488 h 44.093582 44.093582 l 0.815958,0.81596 c 0.509847,0.50985 0.91368,1.46762 1.076442,2.55299 0.752767,5.01981 -0.715487,4.74494 25.346116,4.74494 h 22.013957 l 1.18617,-0.79936 c 1.20513,-0.81214 1.86928,-2.15667 2.26329,-4.58189 0.44501,-2.73913 0.41652,-2.73264 11.9851,-2.73264 h 10.25829 l 1.75783,1.52254 c 13.07398,11.32397 33.71821,11.47656 46.0243,0.34019 l 2.05838,-1.86273 h 8.87929 8.87929 l 1.0312,1.0312 c 2.46573,2.46573 0.50542,11.674 -3.64818,17.13686 -2.52972,3.3271 -5.44215,5.28336 -10.31368,6.92761 l -2.46945,0.8335 -98.601376,0.0466 c -54.376708,0.0257 -99.66163764,-0.0914 -100.9652826,-0.26109 z m 4.7002794,-29.2432 c -1.4006245,-0.33069 -2.71295754,-1.24812 -3.725691,-2.60458 l -0.7273532,-0.97423 V 157.61139 96.342138 l 0.75400188,-1.630681 C 0.19415025,92.370868 2.1752682,90.338185 4.4748709,89.208895 L 6.4717849,88.22825 H 97.488444 188.5051 l 1.63069,0.754002 c 2.236,1.033892 4.41381,3.086066 5.54047,5.220834 l 0.94273,1.786275 0.0939,41.406479 0.0939,41.40649 -2.12611,-1.96841 c -2.8017,-2.59388 -5.97906,-4.83075 -8.9044,-6.26872 l -2.37602,-1.16796 -0.0934,-33.40379 c -0.0903,-32.28285 -0.11597,-33.42871 -0.76546,-34.1463 l -0.67204,-0.74251 H 97.671651 13.473939 l -0.767049,0.81648 -0.76705,0.81649 v 52.64538 52.64538 l 0.865909,0.86591 0.865909,0.8659 h 61.491964 61.491968 l 0.66598,2.32547 c 0.78157,2.72906 2.57807,6.59285 4.08121,8.77759 0.58565,0.85122 1.06483,1.63814 1.06483,1.7487 0,0.31445 -138.318628,0.16342 -139.6566692,-0.15249 z M 74.55789,185.53965 c -4.552212,-2.39231 -4.45202,-1.67887 -4.333098,-30.85468 l 0.09977,-24.47617 0.836489,-1.69897 c 1.605641,-3.26118 6.409458,-4.87307 9.605042,-3.22291 1.59724,0.82479 35.657097,20.5645 39.460527,22.86971 5.6829,3.44434 6.98283,8.33475 3.25491,12.24515 -1.19812,1.25675 -34.137119,20.71394 -41.287756,24.38883 -2.925064,1.50326 -5.685446,1.77404 -7.635879,0.74904 z"
         id="path18" /></g><ellipse
       style="opacity:0.629091;fill:url(#linearGradient95);fill-opacity:1;stroke:none;stroke-width:8.80352;stroke-linecap:round;stroke-linejoin:round;stroke-miterlimit:27.4;stroke-dasharray:none;stroke-opacity:1"
       id="path76-8"
       cx="349.98901"
       cy="795.68152"
       rx="121.89986"
       ry="5.2939367" /></g></svg>
