<?xml version="1.0" encoding="UTF-8" standalone="no"?>
<!-- Created with Inkscape (http://www.inkscape.org/) -->

<svg
   width="264.48068mm"
   height="214.77397mm"
   viewBox="-12 -12 291.04503 236.3458"
   version="1.1"
   id="svg1"
   xml:space="preserve"
   inkscape:export-filename="section2.svg"
   inkscape:export-xdpi="96"
   inkscape:export-ydpi="96"
   inkscape:version="1.3.2 (091e20e, 2023-11-25, custom)"
   sodipodi:docname="icons_manual.svg"
   xmlns:inkscape="http://www.inkscape.org/namespaces/inkscape"
   xmlns:sodipodi="http://sodipodi.sourceforge.net/DTD/sodipodi-0.dtd"
   xmlns:xlink="http://www.w3.org/1999/xlink"
   xmlns="http://www.w3.org/2000/svg"
   xmlns:svg="http://www.w3.org/2000/svg"><sodipodi:namedview
     id="namedview1"
     pagecolor="#ffffff"
     bordercolor="#000000"
     borderopacity="0.25"
     inkscape:showpageshadow="2"
     inkscape:pageopacity="0.0"
     inkscape:pagecheckerboard="0"
     inkscape:deskcolor="#d1d1d1"
     inkscape:document-units="mm"
     showguides="true"
     inkscape:zoom="0.36945288"
     inkscape:cx="174.58248"
     inkscape:cy="315.33115"
     inkscape:window-width="2560"
     inkscape:window-height="1369"
     inkscape:window-x="1912"
     inkscape:window-y="-8"
     inkscape:window-maximized="1"
     inkscape:current-layer="layer1"><sodipodi:guide
       position="-354.84924,5.4529837"
       orientation="0,-1"
       id="guide95"
       inkscape:locked="false" /><sodipodi:guide
       position="-260.27975,230.84362"
       orientation="0,-1"
       id="guide96"
       inkscape:locked="false" /><sodipodi:guide
       position="-813.24367,30.508641"
       orientation="0,-1"
       id="guide151"
       inkscape:locked="false" /></sodipodi:namedview><defs
     id="defs1"><linearGradient
       id="swatch150"
       inkscape:swatch="solid"><stop
         style="stop-color:#0b619a;stop-opacity:1;"
         offset="0"
         id="stop150" /></linearGradient><linearGradient
       id="swatch149"
       inkscape:swatch="solid"><stop
         style="stop-color:#64747f;stop-opacity:1;"
         offset="0"
         id="stop149" /></linearGradient><linearGradient
       id="swatch148"
       inkscape:swatch="solid"><stop
         style="stop-color:#e07d00;stop-opacity:1;"
         offset="0"
         id="stop148" /></linearGradient><linearGradient
       id="swatch147"
       inkscape:swatch="solid"><stop
         style="stop-color:#ffffff;stop-opacity:1;"
         offset="0"
         id="stop147" /></linearGradient><linearGradient
       id="swatch145"
       inkscape:swatch="solid"><stop
         style="stop-color:#0b619a;stop-opacity:1;"
         offset="0"
         id="stop145" /></linearGradient><linearGradient
       id="swatch144"
       inkscape:swatch="solid"><stop
         style="stop-color:#ffffff;stop-opacity:1;"
         offset="0"
         id="stop144" /></linearGradient><linearGradient
       id="swatch143"
       inkscape:swatch="solid"><stop
         style="stop-color:#0b619a;stop-opacity:1;"
         offset="0"
         id="stop143" /></linearGradient><linearGradient
       id="swatch142"
       inkscape:swatch="solid"><stop
         style="stop-color:#92e3de;stop-opacity:1;"
         offset="0"
         id="stop142" /></linearGradient><linearGradient
       id="swatch141"
       inkscape:swatch="solid"><stop
         style="stop-color:#17587f;stop-opacity:1;"
         offset="0"
         id="stop141" /></linearGradient><linearGradient
       id="swatch140"
       inkscape:swatch="solid"><stop
         style="stop-color:#e07d00;stop-opacity:1;"
         offset="0"
         id="stop140" /></linearGradient><linearGradient
       id="swatch138"
       inkscape:swatch="solid"><stop
         style="stop-color:#e07d00;stop-opacity:1;"
         offset="0"
         id="stop138" /></linearGradient><linearGradient
       id="swatch133"
       inkscape:swatch="solid"><stop
         style="stop-color:#17587f;stop-opacity:1;"
         offset="0"
         id="stop133" /></linearGradient><linearGradient
       id="swatch132"
       inkscape:swatch="solid"><stop
         style="stop-color:#57a0ab;stop-opacity:1;"
         offset="0"
         id="stop132" /></linearGradient><linearGradient
       id="swatch131"
       inkscape:swatch="solid"><stop
         style="stop-color:#09688b;stop-opacity:1;"
         offset="0"
         id="stop131" /></linearGradient><linearGradient
       id="swatch130"
       inkscape:swatch="solid"><stop
         style="stop-color:#09688b;stop-opacity:1;"
         offset="0"
         id="stop130" /></linearGradient><linearGradient
       id="swatch129"
       inkscape:swatch="solid"><stop
         style="stop-color:#4be6ca;stop-opacity:1;"
         offset="0"
         id="stop129" /></linearGradient><linearGradient
       id="swatch128"
       inkscape:swatch="solid"><stop
         style="stop-color:#4be6ca;stop-opacity:1;"
         offset="0"
         id="stop128" /></linearGradient><linearGradient
       id="swatch119"
       inkscape:swatch="solid"><stop
         style="stop-color:#006e98;stop-opacity:1;"
         offset="0"
         id="stop119" /></linearGradient><linearGradient
       id="swatch118"
       inkscape:swatch="solid"><stop
         style="stop-color:#58cdc1;stop-opacity:1;"
         offset="0"
         id="stop118" /></linearGradient><linearGradient
       id="swatch116"
       inkscape:swatch="solid"><stop
         style="stop-color:#5d7b8f;stop-opacity:1;"
         offset="0"
         id="stop116" /></linearGradient><linearGradient
       id="swatch115"
       inkscape:swatch="solid"><stop
         style="stop-color:#58b8c5;stop-opacity:1;"
         offset="0"
         id="stop115" /></linearGradient><linearGradient
       id="swatch114"
       inkscape:swatch="solid"><stop
         style="stop-color:#0a5789;stop-opacity:1;"
         offset="0"
         id="stop114" /></linearGradient><linearGradient
       id="swatch100"
       inkscape:swatch="solid"><stop
         style="stop-color:#000000;stop-opacity:1;"
         offset="0"
         id="stop100" /></linearGradient><linearGradient
       id="swatch98"
       inkscape:swatch="solid"><stop
         style="stop-color:#076690;stop-opacity:1;"
         offset="0"
         id="stop98" /></linearGradient><linearGradient
       id="swatch97"
       inkscape:swatch="solid"><stop
         style="stop-color:#d9dee1;stop-opacity:1;"
         offset="0"
         id="stop97" /></linearGradient><linearGradient
       id="swatch94"
       inkscape:swatch="solid"><stop
         style="stop-color:#e07d00;stop-opacity:1;"
         offset="0"
         id="stop94" /></linearGradient><linearGradient
       id="swatch93"
       inkscape:swatch="solid"><stop
         style="stop-color:#006694;stop-opacity:1;"
         offset="0"
         id="stop93" /></linearGradient><linearGradient
       id="swatch89"
       inkscape:swatch="solid"><stop
         style="stop-color:#8a8a8a;stop-opacity:1;"
         offset="0"
         id="stop89" /></linearGradient><linearGradient
       id="swatch88"
       inkscape:swatch="solid"><stop
         style="stop-color:#474747;stop-opacity:1;"
         offset="0"
         id="stop88" /></linearGradient><linearGradient
       id="swatch87"
       inkscape:swatch="solid"
       inkscape:label="blue"><stop
         style="stop-color:#00568f;stop-opacity:1;"
         offset="0"
         id="stop87" /></linearGradient><linearGradient
       id="swatch82"
       inkscape:swatch="solid"><stop
         style="stop-color:#000000;stop-opacity:1;"
         offset="0"
         id="stop82" /></linearGradient><linearGradient
       id="swatch78"
       inkscape:swatch="solid"><stop
         style="stop-color:#989898;stop-opacity:1;"
         offset="0"
         id="stop78" /></linearGradient><linearGradient
       id="swatch77"
       inkscape:swatch="solid"
       inkscape:label="light gray"><stop
         style="stop-color:#989898;stop-opacity:1;"
         offset="0"
         id="stop77" /></linearGradient><linearGradient
       inkscape:collect="always"
       xlink:href="#swatch77"
       id="linearGradient96"
       gradientUnits="userSpaceOnUse"
       gradientTransform="translate(764.42321,-18.304997)"
       x1="-158.19759"
       y1="813.30524"
       x2="85.602127"
       y2="813.30524" /><linearGradient
       inkscape:collect="always"
       xlink:href="#swatch77"
       id="linearGradient97"
       x1="-634.37366"
       y1="582.73712"
       x2="-609.88019"
       y2="582.73712"
       gradientUnits="userSpaceOnUse" /><linearGradient
       inkscape:collect="always"
       xlink:href="#swatch87"
       id="linearGradient98"
       x1="-640.16064"
       y1="564.90283"
       x2="-435.57336"
       y2="564.90283"
       gradientUnits="userSpaceOnUse" /><linearGradient
       inkscape:collect="always"
       xlink:href="#swatch94"
       id="linearGradient100"
       x1="-521.76373"
       y1="620.39636"
       x2="-428.08658"
       y2="620.39636"
       gradientUnits="userSpaceOnUse" /></defs><g
     inkscape:label="Layer 1"
     inkscape:groupmode="layer"
     id="layer1"
     transform="translate(-594.6029,-582.13177)"><rect
       style="fill:#ffffff;fill-opacity:1;stroke:#ffffff;stroke-width:11.0044;stroke-linecap:square;stroke-linejoin:miter;stroke-miterlimit:27.4;stroke-dasharray:none;stroke-opacity:1"
       id="rect92-4"
       width="280.04071"
       height="225.34148"
       x="588.1051"
       y="575.63397"
       rx="0"
       ry="0" /><g
       id="g51"
       transform="translate(1262.2491,110.7678)"><path
         style="fill:url(#linearGradient97);stroke-width:1.0003;stroke-dasharray:none"
         d="m -628.82883,594.09962 -5.54481,-5.5247 0.11514,-1.32748 c 0.0782,-0.90163 0.44677,-1.57402 1.14892,-2.09599 0.6834,-0.50803 1.35174,-0.6887 1.9719,-0.53305 0.51596,0.1295 2.10343,1.30325 3.52769,2.60833 l 2.58958,2.37288 v -11.07023 -11.07023 l 1.02288,-0.8046 c 0.56259,-0.44253 1.35666,-0.8046 1.7646,-0.8046 0.40794,0 1.17051,0.4288 1.6946,0.95289 l 0.95288,0.95288 v 10.91433 10.91433 l 2.96693,-2.5876 2.96693,-2.58761 1.20634,0.23273 c 0.66348,0.12801 1.51205,0.60095 1.8857,1.05099 0.37366,0.45005 0.67937,1.24115 0.67937,1.758 0,0.6616 -1.33027,2.37106 -4.49453,5.77566 -2.47199,2.65976 -4.94128,5.18734 -5.4873,5.61685 -0.54603,0.4295 -1.53936,0.78092 -2.2074,0.78092 h -1.21461 z"
         id="path53"
         sodipodi:nodetypes="ccsssscccssscccccsssssscc" /><path
         style="fill:url(#linearGradient98);stroke-width:1.0003;stroke-dasharray:none"
         d="m -551.45441,664.68285 c -0.85407,-0.27346 -10.37494,-4.56026 -21.15751,-9.52624 -10.78256,-4.96597 -21.70099,-9.99367 -24.26319,-11.17267 -2.56219,-1.179 -9.63734,-4.46106 -15.72254,-7.29346 -6.08521,-2.83241 -14.29587,-6.7072 -18.24592,-8.61064 -5.1242,-2.46924 -7.48778,-3.8244 -8.24949,-4.72983 l -1.06758,-1.26903 v -2.26969 -2.2697 l 1.0211,-1.2135 c 0.5616,-0.66743 1.82814,-1.61848 2.81453,-2.11344 0.98639,-0.49497 10.90902,-5.0301 22.05029,-10.07808 l 20.25687,-9.17813 5.17096,2.37257 c 2.84403,1.30491 11.63467,5.25946 19.53477,8.78788 7.90009,3.52842 15.61577,6.91714 17.14595,7.53049 1.53019,0.61334 3.29073,1.11517 3.91233,1.11517 0.62159,0 2.60148,-0.58144 4.39975,-1.29208 1.79827,-0.71064 5.67178,-2.38915 8.60781,-3.73001 3.81926,-1.74423 5.60577,-2.37078 6.27851,-2.20194 0.51715,0.1298 1.4586,0.67214 2.09211,1.2052 0.6335,0.53305 1.42479,1.65141 1.75842,2.48524 0.33363,0.83383 1.11559,1.9815 1.52809,2.98649 0.45632,1.11174 1.01431,2.54231 0.87272,3.299 -0.14737,0.78556 -1.33838,2.54032 -2.55568,3.22401 -1.43779,0.80753 -3.49152,1.77852 -3.92089,3.07578 l -0.68296,2.06346 0.70922,3.98821 c 0.25058,1.4091 1.16274,4.65501 2.01501,7.21528 0.85228,2.56028 1.65647,5.81483 2.21278,6.7641 0.55631,0.94927 1.71957,2.49414 2.58503,3.43306 0.86546,0.93891 2.56326,1.65122 3.34721,2.05116 0.78395,0.39994 1.52247,0.98024 1.64117,1.28955 0.11869,0.3093 -0.0781,0.82088 -0.43739,1.13682 -0.35925,0.31595 -5.71934,2.89054 -11.91131,5.72133 -6.19196,2.83078 -12.56833,5.73107 -14.1697,6.44508 -1.79985,0.80251 -3.50451,1.29011 -4.46443,1.27698 -0.85406,-0.0117 -2.25162,-0.24497 -3.10568,-0.51842 z m 0.38821,-74.65384 c -0.42704,-0.10349 -18.9447,-8.66494 -41.15037,-19.02543 -22.20568,-10.36049 -41.7094,-19.50706 -43.34161,-20.32571 -1.63222,-0.81865 -3.3355,-1.95607 -3.78506,-2.5276 -0.59524,-0.75672 -0.81366,-1.57886 -0.80364,-3.02491 0.008,-1.09216 0.22593,-2.36414 0.48526,-2.82662 0.25933,-0.46248 0.90825,-1.18089 1.44204,-1.59648 0.53379,-0.41558 5.2333,-2.70129 10.44336,-5.07935 5.21006,-2.37805 9.645,-4.32374 9.85542,-4.32374 0.21042,0 10.01059,4.43253 21.77815,9.85006 11.76757,5.41753 26.41123,12.15273 32.54147,14.96712 6.71789,3.08418 11.92305,5.23992 13.10212,5.4263 1.07593,0.17008 2.79713,0.17631 3.82489,0.0138 1.12739,-0.17821 8.48081,-3.33453 18.53708,-7.95668 9.16763,-4.21371 23.97819,-11.02468 32.91236,-15.13548 l 16.24395,-7.4742 4.31611,1.99853 c 2.37386,1.09918 6.94334,3.30873 10.1544,4.9101 l 5.83829,2.91158 0.90806,1.35874 0.90805,1.35874 -0.16566,2.06331 c -0.12229,1.5232 -0.41081,2.30552 -1.10216,2.98855 -0.51507,0.50887 -2.53314,1.71081 -4.4846,2.67097 -1.95146,0.96016 -20.55647,9.68397 -41.34448,19.38623 -20.788,9.70227 -38.88295,18.09721 -40.21099,18.65543 -1.57569,0.66231 -3.05936,0.99929 -4.27032,0.96991 -1.02064,-0.0248 -2.20509,-0.12971 -2.63212,-0.23321 z m -0.3874,-38.41837 c -0.42658,-0.12017 -10.64624,-4.76221 -22.71035,-10.31564 -12.0641,-5.55342 -28.74784,-13.23613 -37.07496,-17.07267 -8.32713,-3.83655 -17.80791,-8.20384 -21.06841,-9.70509 -3.92866,-1.80891 -6.25284,-3.1154 -6.89075,-3.87351 l -0.96257,-1.14395 v -2.16548 -2.16549 l 1.4715,-1.39568 c 1.03972,-0.98614 4.08694,-2.57532 10.38465,-5.41577 4.90223,-2.21104 23.58752,-10.57358 41.52287,-18.58342 17.93535,-8.00983 33.35901,-14.82327 34.27481,-15.14097 1.08862,-0.37766 2.6342,-0.52631 4.46442,-0.42939 l 2.79935,0.14826 16.49897,7.32208 c 9.07443,4.02715 28.02884,12.47255 42.1209,18.76756 14.09206,6.29502 26.31796,11.91006 27.16866,12.47789 0.85071,0.56782 1.76528,1.46431 2.03239,1.99219 0.26711,0.52788 0.48822,1.62357 0.49137,2.43486 0.003,0.81129 -0.25208,1.97361 -0.56718,2.58294 -0.3151,0.60934 -1.1449,1.45837 -1.844,1.88675 -0.69911,0.42837 -18.47855,8.72611 -39.50989,18.43943 -21.03133,9.71331 -39.98574,18.48562 -42.1209,19.49402 l -3.88211,1.83345 -2.91158,0.12306 c -1.60137,0.0677 -3.26061,0.0247 -3.68719,-0.0954 z"
         id="path52"
         sodipodi:nodetypes="sssssscccssscsssssssssscsscsssssssssssssssscsssssssssscsscccssssssssssssscccssssscssssssssscsss" /><path
         style="fill:url(#linearGradient100);stroke-width:1"
         d="m -469.54942,666.05821 -0.91293,-0.38111 -2.16252,-4.593 c -1.18938,-2.52614 -2.33033,-4.89712 -2.53546,-5.26884 l -0.37294,-0.67584 -2.98768,-0.29745 -2.98766,-0.29743 -3.4822,4.62014 c -1.91519,2.5411 -3.81574,4.72035 -4.22341,4.8428 -0.4366,0.13114 -2.34045,-0.52411 -4.63254,-1.59439 -2.14023,-0.99936 -5.20904,-2.63384 -6.81957,-3.63214 l -2.92825,-1.81512 -0.27936,-0.93004 -0.27935,-0.93003 1.96538,-4.98863 c 1.23393,-3.13205 1.83685,-5.17679 1.62004,-5.49424 -0.18999,-0.27807 -1.12965,-1.44961 -2.08826,-2.60337 l -1.74295,-2.09775 -2.53325,0.33583 c -1.39329,0.1847 -3.98661,0.56423 -5.76295,0.84339 l -3.2297,0.50756 -0.85128,-0.44815 -0.85129,-0.44816 -2.0681,-6.88518 -2.06811,-6.88518 0.55594,-1.00529 0.55592,-1.00528 5.18318,-2.41961 c 2.85073,-1.33078 5.19615,-2.45081 5.21203,-2.48894 0.0159,-0.0381 0.15129,-1.20143 0.30088,-2.58509 0.1496,-1.38365 0.27541,-2.76953 0.2796,-3.07972 0.004,-0.32316 -1.9551,-1.92716 -4.58865,-3.75625 -2.52794,-1.75574 -4.68466,-3.48648 -4.79267,-3.84608 -0.10802,-0.35961 0.009,-1.20173 0.26046,-1.87136 0.25126,-0.66964 1.39802,-2.9925 2.54834,-5.16193 1.15031,-2.16943 2.67237,-4.77512 3.38235,-5.79042 0.70999,-1.0153 1.63122,-1.94684 2.04721,-2.07009 0.41732,-0.12431 3.13431,0.66561 6.06436,1.76185 l 5.30801,1.98596 2.41767,-1.91053 2.41767,-1.91052 -0.26524,-1.66409 c -0.14591,-0.91525 -0.50531,-3.52725 -0.79872,-5.80444 l -0.5335,-4.14035 0.58036,-0.83544 0.58036,-0.83543 6.91718,-2.07771 6.91715,-2.07771 0.9116,0.3815 0.91159,0.3815 2.1039,4.42337 c 1.15716,2.43284 2.31138,4.80491 2.56493,5.27124 l 0.46105,0.84788 2.95953,0.29463 2.95953,0.29465 3.4822,-4.62015 c 1.91519,-2.54109 3.81557,-4.7203 4.22305,-4.84269 0.43195,-0.12975 2.27063,0.49048 4.40981,1.48753 2.01791,0.94053 5.08604,2.57214 6.81804,3.62577 l 3.14911,1.91571 0.27625,0.91968 0.27624,0.91967 -1.94531,5.02973 c -1.15506,2.98651 -1.81113,5.22519 -1.61505,5.51087 0.1816,0.26463 1.11421,1.42324 2.07239,2.57469 l 1.74214,2.09355 1.43267,-0.19022 c 0.78797,-0.10463 3.38829,-0.47877 5.77852,-0.83142 l 4.34584,-0.64119 0.83651,0.44038 0.83653,0.44039 2.06811,6.88518 2.0681,6.88517 -0.56685,1.0312 -0.56687,1.03119 -1.83376,0.81438 c -1.00856,0.44791 -3.35036,1.53162 -5.20398,2.40821 l -3.37023,1.59382 -0.31613,3.06756 -0.31612,3.06755 1.92425,1.37319 c 1.05835,0.75525 3.1337,2.18948 4.61189,3.18718 1.47818,0.99769 2.7867,2.14065 2.90778,2.5399 0.12098,0.39931 0.0146,1.2738 -0.23667,1.94345 -0.25127,0.66962 -1.39802,2.99249 -2.54834,5.16193 -1.15031,2.16942 -2.67237,4.77511 -3.38235,5.79042 -0.70997,1.0153 -1.64634,1.95276 -2.08083,2.08327 -0.46697,0.14027 -2.94454,-0.58151 -6.05986,-1.7654 l -5.26992,-2.00268 -2.42216,1.91406 -2.42216,1.91408 0.26526,1.66409 c 0.14592,0.91524 0.5053,3.52725 0.79871,5.80444 l 0.5335,4.14035 -0.58036,0.83542 -0.58037,0.83544 -6.91716,2.07771 -6.91717,2.07771 z m 2.64126,-32.49018 c 0.91278,-0.55655 2.33481,-1.68351 3.16008,-2.50433 0.82527,-0.8208 2.02881,-2.52033 2.67454,-3.77674 0.64572,-1.25641 1.32467,-3.07554 1.50877,-4.04254 0.1841,-0.96698 0.31279,-2.59412 0.28598,-3.61586 -0.0268,-1.02173 -0.30409,-2.70781 -0.61618,-3.74684 -0.31209,-1.03901 -1.00977,-2.59882 -1.55041,-3.46621 -0.54063,-0.8674 -1.54461,-2.15431 -2.23108,-2.85981 -0.68647,-0.70551 -2.25543,-1.84944 -3.48659,-2.54208 -1.23117,-0.69264 -3.17199,-1.44769 -4.31295,-1.6779 -1.14097,-0.23022 -2.94862,-0.38707 -4.01701,-0.34857 -1.06839,0.0385 -2.80812,0.33001 -3.86605,0.64779 -1.05795,0.31777 -2.67035,1.03315 -3.58313,1.58973 -0.91277,0.55657 -2.33481,1.68352 -3.16008,2.50435 -0.82527,0.8208 -2.02881,2.52033 -2.67454,3.77673 -0.64572,1.2564 -1.32467,3.07554 -1.50877,4.04254 -0.18409,0.96699 -0.31279,2.59412 -0.28598,3.61586 0.0268,1.02173 0.26511,2.58484 0.52957,3.47356 0.26387,0.88891 0.90382,2.38179 1.42079,3.31791 0.51697,0.93614 1.55813,2.34501 2.31367,3.13083 0.75553,0.78581 2.38282,1.99649 3.61619,2.69037 1.23339,0.69389 3.18375,1.45153 4.33416,1.68365 1.15041,0.23211 2.87576,0.40061 3.83414,0.37445 0.95837,-0.0262 2.69037,-0.31925 3.84889,-0.65126 1.15852,-0.33201 2.85321,-1.05904 3.76599,-1.61563 z"
         id="path98" /></g><ellipse
       style="opacity:0.629091;fill:url(#linearGradient96);fill-opacity:1;stroke:none;stroke-width:8.80352;stroke-linecap:round;stroke-linejoin:round;stroke-miterlimit:27.4;stroke-dasharray:none;stroke-opacity:1"
       id="path76-8-2"
       cx="728.12549"
       cy="795.00055"
       rx="121.89986"
       ry="5.2939367" /></g></svg>
