<?xml version="1.0" encoding="UTF-8" standalone="no"?>
<!-- Created with Inkscape (http://www.inkscape.org/) -->

<svg
   width="264.48114mm"
   height="214.77437mm"
   viewBox="-12 -12 291.045 236.3458"
   version="1.1"
   id="svg1"
   xml:space="preserve"
   inkscape:export-filename="section7.svg"
   inkscape:export-xdpi="96"
   inkscape:export-ydpi="96"
   inkscape:version="1.3.2 (091e20e, 2023-11-25, custom)"
   sodipodi:docname="icons_manual.svg"
   xmlns:inkscape="http://www.inkscape.org/namespaces/inkscape"
   xmlns:sodipodi="http://sodipodi.sourceforge.net/DTD/sodipodi-0.dtd"
   xmlns:xlink="http://www.w3.org/1999/xlink"
   xmlns="http://www.w3.org/2000/svg"
   xmlns:svg="http://www.w3.org/2000/svg"><sodipodi:namedview
     id="namedview1"
     pagecolor="#ffffff"
     bordercolor="#000000"
     borderopacity="0.25"
     inkscape:showpageshadow="2"
     inkscape:pageopacity="0.0"
     inkscape:pagecheckerboard="0"
     inkscape:deskcolor="#d1d1d1"
     inkscape:document-units="mm"
     showguides="true"
     inkscape:zoom="0.36945288"
     inkscape:cx="174.58248"
     inkscape:cy="315.33115"
     inkscape:window-width="2560"
     inkscape:window-height="1369"
     inkscape:window-x="1912"
     inkscape:window-y="-8"
     inkscape:window-maximized="1"
     inkscape:current-layer="layer1"><sodipodi:guide
       position="-2245.5294,5.4534204"
       orientation="0,-1"
       id="guide95"
       inkscape:locked="false" /><sodipodi:guide
       position="-2150.96,230.84364"
       orientation="0,-1"
       id="guide96"
       inkscape:locked="false" /><sodipodi:guide
       position="-2703.9229,30.509033"
       orientation="0,-1"
       id="guide151"
       inkscape:locked="false" /></sodipodi:namedview><defs
     id="defs1"><linearGradient
       id="swatch150"
       inkscape:swatch="solid"><stop
         style="stop-color:#0b619a;stop-opacity:1;"
         offset="0"
         id="stop150" /></linearGradient><linearGradient
       id="swatch149"
       inkscape:swatch="solid"><stop
         style="stop-color:#64747f;stop-opacity:1;"
         offset="0"
         id="stop149" /></linearGradient><linearGradient
       id="swatch148"
       inkscape:swatch="solid"><stop
         style="stop-color:#e07d00;stop-opacity:1;"
         offset="0"
         id="stop148" /></linearGradient><linearGradient
       id="swatch147"
       inkscape:swatch="solid"><stop
         style="stop-color:#ffffff;stop-opacity:1;"
         offset="0"
         id="stop147" /></linearGradient><inkscape:path-effect
       effect="bspline"
       id="path-effect146"
       is_visible="true"
       lpeversion="1.3"
       weight="33.333333"
       steps="2"
       helper_size="0"
       apply_no_weight="true"
       apply_with_weight="true"
       only_selected="false"
       uniform="false" /><linearGradient
       id="swatch145"
       inkscape:swatch="solid"><stop
         style="stop-color:#0b619a;stop-opacity:1;"
         offset="0"
         id="stop145" /></linearGradient><linearGradient
       id="swatch144"
       inkscape:swatch="solid"><stop
         style="stop-color:#ffffff;stop-opacity:1;"
         offset="0"
         id="stop144" /></linearGradient><linearGradient
       id="swatch143"
       inkscape:swatch="solid"><stop
         style="stop-color:#0b619a;stop-opacity:1;"
         offset="0"
         id="stop143" /></linearGradient><linearGradient
       id="swatch142"
       inkscape:swatch="solid"><stop
         style="stop-color:#92e3de;stop-opacity:1;"
         offset="0"
         id="stop142" /></linearGradient><linearGradient
       id="swatch141"
       inkscape:swatch="solid"><stop
         style="stop-color:#17587f;stop-opacity:1;"
         offset="0"
         id="stop141" /></linearGradient><linearGradient
       id="swatch140"
       inkscape:swatch="solid"><stop
         style="stop-color:#e07d00;stop-opacity:1;"
         offset="0"
         id="stop140" /></linearGradient><linearGradient
       id="swatch138"
       inkscape:swatch="solid"><stop
         style="stop-color:#e07d00;stop-opacity:1;"
         offset="0"
         id="stop138" /></linearGradient><linearGradient
       id="swatch133"
       inkscape:swatch="solid"><stop
         style="stop-color:#17587f;stop-opacity:1;"
         offset="0"
         id="stop133" /></linearGradient><linearGradient
       id="swatch132"
       inkscape:swatch="solid"><stop
         style="stop-color:#57a0ab;stop-opacity:1;"
         offset="0"
         id="stop132" /></linearGradient><linearGradient
       id="swatch131"
       inkscape:swatch="solid"><stop
         style="stop-color:#09688b;stop-opacity:1;"
         offset="0"
         id="stop131" /></linearGradient><linearGradient
       id="swatch130"
       inkscape:swatch="solid"><stop
         style="stop-color:#09688b;stop-opacity:1;"
         offset="0"
         id="stop130" /></linearGradient><linearGradient
       id="swatch129"
       inkscape:swatch="solid"><stop
         style="stop-color:#4be6ca;stop-opacity:1;"
         offset="0"
         id="stop129" /></linearGradient><linearGradient
       id="swatch128"
       inkscape:swatch="solid"><stop
         style="stop-color:#4be6ca;stop-opacity:1;"
         offset="0"
         id="stop128" /></linearGradient><linearGradient
       id="swatch119"
       inkscape:swatch="solid"><stop
         style="stop-color:#006e98;stop-opacity:1;"
         offset="0"
         id="stop119" /></linearGradient><linearGradient
       id="swatch118"
       inkscape:swatch="solid"><stop
         style="stop-color:#58cdc1;stop-opacity:1;"
         offset="0"
         id="stop118" /></linearGradient><linearGradient
       id="swatch116"
       inkscape:swatch="solid"><stop
         style="stop-color:#5d7b8f;stop-opacity:1;"
         offset="0"
         id="stop116" /></linearGradient><linearGradient
       id="swatch115"
       inkscape:swatch="solid"><stop
         style="stop-color:#58b8c5;stop-opacity:1;"
         offset="0"
         id="stop115" /></linearGradient><linearGradient
       id="swatch114"
       inkscape:swatch="solid"><stop
         style="stop-color:#0a5789;stop-opacity:1;"
         offset="0"
         id="stop114" /></linearGradient><linearGradient
       id="swatch100"
       inkscape:swatch="solid"><stop
         style="stop-color:#000000;stop-opacity:1;"
         offset="0"
         id="stop100" /></linearGradient><linearGradient
       id="swatch98"
       inkscape:swatch="solid"><stop
         style="stop-color:#076690;stop-opacity:1;"
         offset="0"
         id="stop98" /></linearGradient><linearGradient
       id="swatch97"
       inkscape:swatch="solid"><stop
         style="stop-color:#d9dee1;stop-opacity:1;"
         offset="0"
         id="stop97" /></linearGradient><linearGradient
       id="swatch94"
       inkscape:swatch="solid"><stop
         style="stop-color:#e07d00;stop-opacity:1;"
         offset="0"
         id="stop94" /></linearGradient><linearGradient
       id="swatch93"
       inkscape:swatch="solid"><stop
         style="stop-color:#006694;stop-opacity:1;"
         offset="0"
         id="stop93" /></linearGradient><linearGradient
       id="swatch89"
       inkscape:swatch="solid"><stop
         style="stop-color:#8a8a8a;stop-opacity:1;"
         offset="0"
         id="stop89" /></linearGradient><linearGradient
       id="swatch88"
       inkscape:swatch="solid"><stop
         style="stop-color:#474747;stop-opacity:1;"
         offset="0"
         id="stop88" /></linearGradient><linearGradient
       id="swatch87"
       inkscape:swatch="solid"
       inkscape:label="blue"><stop
         style="stop-color:#00568f;stop-opacity:1;"
         offset="0"
         id="stop87" /></linearGradient><linearGradient
       id="swatch82"
       inkscape:swatch="solid"><stop
         style="stop-color:#000000;stop-opacity:1;"
         offset="0"
         id="stop82" /></linearGradient><linearGradient
       id="swatch78"
       inkscape:swatch="solid"><stop
         style="stop-color:#989898;stop-opacity:1;"
         offset="0"
         id="stop78" /></linearGradient><linearGradient
       id="swatch77"
       inkscape:swatch="solid"
       inkscape:label="light gray"><stop
         style="stop-color:#989898;stop-opacity:1;"
         offset="0"
         id="stop77" /></linearGradient><linearGradient
       inkscape:collect="always"
       xlink:href="#swatch94"
       id="linearGradient145"
       x1="1139.0485"
       y1="1417.8199"
       x2="1182.2834"
       y2="1417.8199"
       gradientUnits="userSpaceOnUse"
       gradientTransform="matrix(1.2018631,0,0,1.2018631,-218.62555,-329.99976)" /><linearGradient
       inkscape:collect="always"
       xlink:href="#swatch77"
       id="linearGradient147"
       x1="993.8595"
       y1="1396.4196"
       x2="1076.5013"
       y2="1396.4196"
       gradientUnits="userSpaceOnUse" /><linearGradient
       inkscape:collect="always"
       xlink:href="#swatch78"
       id="linearGradient147-5"
       x1="993.8595"
       y1="1396.4196"
       x2="1076.5013"
       y2="1396.4196"
       gradientUnits="userSpaceOnUse" /><inkscape:path-effect
       effect="bspline"
       id="path-effect146-1"
       is_visible="true"
       lpeversion="1.3"
       weight="33.333333"
       steps="2"
       helper_size="0"
       apply_no_weight="true"
       apply_with_weight="true"
       only_selected="false"
       uniform="false" /><linearGradient
       inkscape:collect="always"
       xlink:href="#swatch78"
       id="linearGradient147-5-4"
       x1="993.8595"
       y1="1396.4196"
       x2="1076.5013"
       y2="1396.4196"
       gradientUnits="userSpaceOnUse" /><inkscape:path-effect
       effect="bspline"
       id="path-effect146-1-2"
       is_visible="true"
       lpeversion="1.3"
       weight="33.333333"
       steps="2"
       helper_size="0"
       apply_no_weight="true"
       apply_with_weight="true"
       only_selected="false"
       uniform="false" /><linearGradient
       inkscape:collect="always"
       xlink:href="#swatch78"
       id="linearGradient147-5-4-3"
       x1="993.8595"
       y1="1396.4196"
       x2="1076.5013"
       y2="1396.4196"
       gradientUnits="userSpaceOnUse" /><inkscape:path-effect
       effect="bspline"
       id="path-effect146-1-2-7"
       is_visible="true"
       lpeversion="1.3"
       weight="33.333333"
       steps="2"
       helper_size="0"
       apply_no_weight="true"
       apply_with_weight="true"
       only_selected="false"
       uniform="false" /><linearGradient
       inkscape:collect="always"
       xlink:href="#swatch77"
       id="linearGradient149"
       x1="1144.0963"
       y1="1481.6377"
       x2="1208.8936"
       y2="1481.6377"
       gradientUnits="userSpaceOnUse"
       gradientTransform="translate(-0.11613914,-8.1388793)" /><linearGradient
       inkscape:collect="always"
       xlink:href="#swatch87"
       id="linearGradient150"
       x1="958.96661"
       y1="1451.1989"
       x2="1247.472"
       y2="1451.1989"
       gradientUnits="userSpaceOnUse" /><linearGradient
       inkscape:collect="always"
       xlink:href="#swatch77"
       id="linearGradient151"
       gradientUnits="userSpaceOnUse"
       gradientTransform="translate(2655.1054,-17.623458)"
       x1="-158.19759"
       y1="813.30524"
       x2="85.602127"
       y2="813.30524" /></defs><g
     inkscape:label="Layer 1"
     inkscape:groupmode="layer"
     id="layer1"
     transform="translate(-2485.2852,-582.13177)"><rect
       style="fill:#ffffff;fill-opacity:1;stroke:#ffffff;stroke-width:11.0044;stroke-linecap:square;stroke-linejoin:miter;stroke-miterlimit:27.4;stroke-dasharray:none;stroke-opacity:1"
       id="rect92-75"
       width="280.04071"
       height="225.34148"
       x="2478.7874"
       y="575.63397"
       rx="0"
       ry="0" /><ellipse
       style="opacity:0.629091;fill:url(#linearGradient151);fill-opacity:1;stroke:none;stroke-width:8.80352;stroke-linecap:round;stroke-linejoin:round;stroke-miterlimit:27.4;stroke-dasharray:none;stroke-opacity:1"
       id="path76-8-2-7-4-9"
       cx="2618.8076"
       cy="795.68152"
       rx="121.89986"
       ry="5.2939367" /><g
       id="g135"
       transform="matrix(0.8843708,0,0,0.8843708,1643.1528,-605.8604)"><path
         style="fill:url(#linearGradient149);stroke-width:0.934551"
         d="m 1157.7206,1505.4241 c -0.9844,-0.1648 -2.8129,-0.819 -4.0637,-1.4538 l -2.2741,-1.1542 -2.01,-1.9942 -2.0103,-1.9942 -1.2351,-2.4689 -1.2352,-2.469 -0.4561,-2.5519 -0.456,-2.552 0.4321,-2.6446 0.432,-2.6446 1.0972,-2.3583 1.0973,-2.3583 6.4172,-6.3877 6.4171,-6.3879 1.9956,-0.9556 c 1.0974,-0.5257 2.9468,-1.1311 4.1096,-1.3454 l 2.1141,-0.3896 2.513,0.3899 c 1.3822,0.2145 3.2062,0.6626 4.0535,0.9958 0.8473,0.3333 2.1118,0.9786 2.8103,1.4341 0.6983,0.4554 1.5348,1.0412 1.8587,1.3016 0.324,0.2605 0.9356,1.0421 1.3592,1.737 l 0.7702,1.2634 v 1.1971 c 7e-4,0.6585 -0.2463,1.6761 -0.549,2.2614 -0.3027,0.5853 -1.0572,1.3264 -1.6766,1.6467 l -1.1264,0.5825 -1.1889,-0.223 c -0.6539,-0.1228 -1.6023,-0.5482 -2.1074,-0.9455 -0.5052,-0.3974 -1.6237,-1.0427 -2.4857,-1.4338 l -1.5672,-0.7112 -1.6664,-0.011 -1.6663,-0.011 -1.4991,0.8163 c -0.8246,0.449 -3.6815,2.9643 -6.3487,5.5898 l -4.8495,4.7733 -0.6016,1.2678 -0.6017,1.2677 v 2.0076 c 0,1.1043 0.1523,2.4083 0.3386,2.898 0.1861,0.4897 0.8786,1.5056 1.5387,2.2574 0.6602,0.7518 1.8549,1.6644 2.6547,2.0278 l 1.4542,0.6606 1.735,0.01 c 0.9544,0 2.3071,-0.2311 3.0066,-0.5232 0.6993,-0.2923 2.2042,-1.4129 3.3443,-2.4904 1.14,-1.0775 2.4266,-2.1431 2.8593,-2.3681 l 0.7866,-0.4088 1.2088,0.2306 c 0.6648,0.1268 1.8187,0.5357 2.564,0.9086 0.7453,0.3728 1.6208,1.0831 1.9454,1.5785 l 0.5902,0.9009 -0.2537,1.3519 -0.2536,1.3519 -3.1429,3.1259 -3.1429,3.126 -1.9956,0.9241 c -1.0974,0.5084 -2.8605,1.1063 -3.918,1.3287 -1.0573,0.2223 -2.6899,0.3852 -3.628,0.3617 -0.938,-0.023 -2.5108,-0.1775 -3.4951,-0.3422 z m 15.939,-16.8128 c -0.7981,-0.253 -2.1858,-0.832 -3.0837,-1.2864 -0.8981,-0.4546 -2.0156,-1.1752 -2.4835,-1.6018 -0.4679,-0.4264 -1.0801,-1.2161 -1.3604,-1.7549 -0.2805,-0.5389 -0.5098,-1.6352 -0.5098,-2.4363 v -1.4567 l 1.0923,-1.244 c 0.6008,-0.6844 1.5269,-1.3532 2.058,-1.4865 l 0.9657,-0.2424 2.4511,1.284 c 1.3481,0.7061 3.0817,1.3848 3.8527,1.5081 l 1.4017,0.2242 1.6174,-0.4283 1.6174,-0.4285 8.2942,-8.2224 8.2942,-8.2226 0.6773,-1.4511 c 0.3723,-0.7983 0.6771,-2.1043 0.6771,-2.9025 0,-0.7982 -0.3023,-2.1042 -0.672,-2.9024 -0.3695,-0.7981 -1.1413,-1.8915 -1.7152,-2.4297 -0.5739,-0.5382 -1.6505,-1.232 -2.3924,-1.5419 -0.7419,-0.3099 -2.177,-0.5635 -3.189,-0.5635 h -1.84 l -1.3461,0.6995 c -0.7403,0.3846 -3.2235,2.5968 -5.5183,4.9159 -2.2947,2.3191 -4.7115,4.5536 -5.3706,4.9655 l -1.1984,0.749 -1.1599,-0.2252 c -0.6379,-0.1238 -2.0025,-0.5638 -3.0326,-0.9777 l -1.8728,-0.7524 -0.4358,-1.0522 -0.4358,-1.0522 0.247,-1.0048 0.2471,-1.0047 6.0523,-6.0294 6.0525,-6.0294 1.9954,-1.0091 c 1.0975,-0.5551 2.8117,-1.2276 3.8095,-1.4945 0.9977,-0.267 2.8047,-0.4873 4.0156,-0.4896 1.2109,0 3.0885,0.2587 4.1722,0.5803 1.0838,0.3216 2.7823,0.9957 3.7744,1.4981 l 1.8038,0.9135 2.284,2.284 2.2841,2.284 1.103,2.3573 c 0.6068,1.2966 1.2811,3.4313 1.4986,4.7437 l 0.3955,2.3865 -0.3955,2.3865 c -0.2175,1.3124 -0.9022,3.4694 -1.5217,4.7932 l -1.1263,2.4069 -8.781,8.8447 c -4.8297,4.8646 -9.4478,9.3089 -10.2624,9.876 -0.8148,0.5671 -2.483,1.3686 -3.7074,1.7811 l -2.2259,0.7498 -2.8232,-0.024 c -1.5527,-0.013 -3.4763,-0.2315 -4.2744,-0.4846 z"
         id="path136" /><path
         style="fill:url(#linearGradient150)"
         d="m 1099.8514,1562.0132 c -0.5338,-0.1755 -1.6693,-0.6804 -2.5234,-1.122 -0.854,-0.4416 -2.268,-1.5598 -3.1422,-2.4849 -0.8742,-0.925 -2.3898,-2.9088 -3.3681,-4.4084 -0.9783,-1.4995 -2.4503,-3.2661 -3.2711,-3.9257 -0.8208,-0.6596 -2.1931,-1.5568 -3.0497,-1.9938 -0.8565,-0.437 -2.5883,-0.9852 -3.8485,-1.2181 l -2.2912,-0.4235 h -52.046 -52.04606 l -1.94106,-0.5185 c -1.06759,-0.2852 -2.63983,-0.8772 -3.4939,-1.3155 -0.85406,-0.4384 -2.21966,-1.3287 -3.03466,-1.9786 -0.815,-0.6498 -2.05592,-1.9337 -2.75761,-2.8531 -0.70168,-0.9194 -1.64083,-2.3876 -2.08701,-3.2627 -0.44617,-0.8751 -1.07201,-2.7156 -1.39075,-4.09 l -0.57953,-2.4989 -0.007,-69.5996 -0.007,-101.3093 0.38116,-2.7175 0.38116,-2.7175 1.09977,-2.3543 1.09977,-2.3542 2.42926,-2.5969 2.42927,-2.5969 2.76864,-1.3521 2.76864,-1.3521 2.71748,-0.4055 2.71748,-0.4055 52.60255,0.1269 c 28.9315,0.07 53.2074,0.2662 53.9466,0.4366 0.7392,0.1703 2.441,0.7079 3.7818,1.1946 1.3408,0.4867 3.426,1.4748 4.6339,2.1959 1.2078,0.7211 3.4536,2.5339 4.9906,4.0285 l 2.7945,2.7175 1.4515,2.6204 c 0.7984,1.4413 1.5676,2.6178 1.7094,2.6144 0.1417,0 0.6839,-0.8743 1.2049,-1.9355 0.5209,-1.0613 1.8082,-2.981 2.8606,-4.2661 1.0524,-1.285 2.9846,-3.1471 4.2937,-4.1379 1.3091,-0.9909 3.4284,-2.2936 4.7095,-2.8949 1.2811,-0.6014 3.3774,-1.4037 4.6585,-1.7831 l 2.3293,-0.6896 45.4207,-0.1157 58.9142,-0.1157 2.6583,0.4436 2.6583,0.4437 2.9939,1.4985 2.9939,1.4984 2.3532,2.4507 c 1.2943,1.348 2.7928,3.319 3.3298,4.3803 0.5371,1.0613 1.1946,2.6284 1.4611,3.4824 0.2664,0.8541 0.592,4.0859 0.7233,7.1819 l 0.2387,5.6291 -0.1951,158.5842 -0.01,-13.3667 -0.01,18.3429 -0.3927,1.7036 c -0.216,0.937 -0.856,2.6828 -1.4222,3.8797 -0.5662,1.1969 -1.8264,3.0285 -2.8005,4.0702 -0.9741,1.0417 -2.4936,2.3914 -3.3768,2.9993 -0.8831,0.6079 -2.5427,1.5036 -3.688,1.9905 l -2.0823,0.8852 -61.0493,0.1941 -47.5559,0.1941 -1.8579,0.7683 c -1.0218,0.4225 -2.6814,1.3839 -3.688,2.1366 l -1.8301,1.3684 -2.0489,3.0989 c -1.1268,1.7043 -2.6991,3.7714 -3.4939,4.5935 -0.7947,0.8221 -2.3185,1.9449 -3.386,2.4952 l -1.9411,1.0005 -2.9116,0.12 c -1.6013,0.066 -3.3483,-0.024 -3.8821,-0.1991 z m 23.5482,-29.3705 3.0443,-0.5426 44.6442,-0.015 58.1378,-0.015 1.2851,-0.7835 1.285,-0.7835 0.559,-1.3377 0.5589,-1.3378 v -68.5643 -100.2741 l -0.7187,-1.3401 c -0.3953,-0.7371 -1.1943,-1.6952 -1.7755,-2.1291 l -1.0567,-0.789 h -58.5945 -45.1011 l -2.2367,0.9031 -2.2366,0.903 -1.9546,1.9038 -1.9545,1.9037 -1.0496,2.24 -1.0497,2.2399 -0.1941,101.3549 -0.1941,69.6453 2.7789,-1.3197 2.7789,-1.3197 z m -31.7941,-66.5921 -0.1006,-101.2261 -1.0192,-2.1351 c -0.5606,-1.1744 -1.6598,-2.8703 -2.4426,-3.7688 l -1.4235,-1.6336 -2.5957,-1.278 -2.5958,-1.278 -51.7599,-0.1053 -51.75989,-0.1053 -1.73765,0.7687 -1.73764,0.7686 -0.57139,1.3676 -0.5714,1.3675 0.0992,101.1287 0.0992,69.4191 1.26904,1.2691 1.26904,1.2692 53.46869,0.1941 53.4687,0.1941 2.5234,0.8829 c 1.3879,0.4856 3.1348,1.2207 3.8821,1.6336 0.7473,0.4129 1.5787,0.7582 1.8476,0.767 l 0.4889,0.016 z m 155.6726,16.8924 v 14.6038 14.6038 z m 0,-36.6489 v 14.2244 z m -3e-4,-50.9972 v 14.3638 z"
         id="path135"
         sodipodi:nodetypes="csssssscccssssssccccccccccccccsssscscssssscccccccssssccccssssscccsscssscsccccccccccccssccccccccccccccccsscccccccccccccccssscccccccccccc" /><path
         d="m 1153.2251,1411.5707 c -0.5323,-0.2737 -1.3478,-1.0091 -1.8121,-1.6343 l -0.8443,-1.1368 -0.107,-34.2263 -0.1069,-34.2263 0.6793,-1.4313 c 0.3735,-0.7873 1.2373,-1.7717 1.9195,-2.1877 l 1.2403,-0.7563 h 22.1488 22.1487 l 1.2894,0.786 c 0.709,0.4324 1.5697,1.3288 1.9129,1.9921 l 0.6235,1.2058 v 34.2701 34.2699 l -0.6108,1.1813 c -0.336,0.6497 -1.1425,1.4562 -1.7922,1.7922 -0.6497,0.336 -1.7974,0.6108 -2.5504,0.6108 h -1.369 l -1.5706,-1.1664 c -0.8638,-0.6414 -5.0119,-4.6282 -9.218,-8.8594 l -7.6475,-7.6931 h -0.9893 -0.9892 l -8.4783,8.4107 c -4.663,4.6259 -8.874,8.6127 -9.3578,8.8594 -0.4838,0.2469 -1.4805,0.4462 -2.215,0.4429 -0.7343,0 -1.7708,-0.2298 -2.3032,-0.5033 z"
         style="fill:url(#linearGradient145);stroke-width:1.20186"
         id="path1-7" /><path
         style="opacity:1;fill:none;fill-opacity:1;stroke:url(#linearGradient147);stroke-width:10.1998;stroke-linecap:round;stroke-linejoin:round;stroke-dasharray:none;stroke-opacity:1;paint-order:stroke fill markers"
         d="m 993.8595,1396.4196 c 20.7681,0 41.5362,0 62.3042,0"
         id="path146"
         inkscape:path-effect="#path-effect146"
         inkscape:original-d="m 993.8595,1396.4196 c 20.7681,0 41.5362,0 62.3042,0"
         transform="matrix(0.82505725,0,0,1.011441,189.9579,-20.786935)"
         sodipodi:nodetypes="cc" /><path
         style="fill:none;fill-opacity:1;stroke:url(#linearGradient147-5);stroke-width:10.1998;stroke-linecap:round;stroke-linejoin:round;stroke-dasharray:none;stroke-opacity:1;paint-order:stroke fill markers"
         d="m 978.04132,1396.4196 c 26.04088,0 52.08168,0 78.12238,0"
         id="path146-3"
         inkscape:path-effect="#path-effect146-1"
         inkscape:original-d="m 978.04132,1396.4196 c 26.04088,0 52.08168,0 78.12238,0"
         transform="matrix(0.82505725,0,0,1.011441,190.57595,5.1267378)"
         sodipodi:nodetypes="cc" /><path
         style="fill:none;fill-opacity:1;stroke:url(#linearGradient147-5-4);stroke-width:10.1998;stroke-linecap:round;stroke-linejoin:round;stroke-dasharray:none;stroke-opacity:1;paint-order:stroke fill markers"
         d="m 978.04132,1396.4196 c 26.04088,0 52.08168,0 78.12238,0"
         id="path146-3-1"
         inkscape:path-effect="#path-effect146-1-2"
         inkscape:original-d="m 978.04132,1396.4196 c 26.04088,0 52.08168,0 78.12238,0"
         transform="matrix(0.82505725,0,0,1.011441,190.11733,31.040402)"
         sodipodi:nodetypes="cc" /><path
         style="fill:none;fill-opacity:1;stroke:url(#linearGradient147-5-4-3);stroke-width:10.1998;stroke-linecap:round;stroke-linejoin:round;stroke-dasharray:none;stroke-opacity:1;paint-order:stroke fill markers"
         d="m 978.04132,1396.4196 c 16.57146,0 33.14288,0 49.71418,0"
         id="path146-3-1-7"
         inkscape:path-effect="#path-effect146-1-2-7"
         inkscape:original-d="m 978.04132,1396.4196 c 16.57146,0 33.14288,0 49.71418,0"
         transform="matrix(0.82505725,0,0,1.011441,190.08356,56.954068)"
         sodipodi:nodetypes="cc" /></g></g></svg>
